/* XPM */
static char *_026cd8081584365db11d5aec9994806lMKRsVHaJlenCAQX[] = {
/* columns rows colors chars-per-pixel */
"128 128 19 1 ",
"  c #43020E",
". c #65020E",
"X c #66020E",
"o c #CA2B37",
"O c #F35E17",
"+ c #EC462E",
"@ c #F37833",
"# c #E7584D",
"$ c #D27878",
"% c #FF9C58",
"& c #E8807D",
"* c #2D6AA4",
"= c #3279B9",
"- c #378AD1",
"; c #B89CAA",
": c #E9B2B2",
"> c #EBD1D0",
", c #EADFD9",
"< c #FFFEE8",
/* pixels */
"--------------------------------------------------------------------------------------------------------------------------------",
"--------------------------------------------------------------------------------------------------------------------------------",
"--------------------------------------------------------------------------------------------------------------------------------",
"--------------------------------------------------------------------------------------------------------------------------------",
"--------------------------------------------------------------------------------------------------------------------------------",
"--------------------------------------------------------------------------------------------------------------------------------",
"--------------------------------------------------------------------------------------------------------------------------------",
"--------------------------------------------------------------------------------------------------------------------------------",
"--------------------------------------------------------------------------------------------------------------------------------",
"--------------------------------------------------------------------------------------------------------------------------------",
"--------------------------------------------------------------------------------------------------------------------------------",
"--------------------------------------------------------------------------------------------------------------------------------",
"--------------------------------------------------------------------------------------------------------------------------------",
"--------------------------------------------------------------------------------------------------------------------------------",
"--------------------------------------------------------------------------------------------------------------------------------",
"--------------------------------------------------------------------------------------------------------------------------------",
"--------------------------------------------------------------------------------------------------------------------------------",
"--------------------------------------------------------------------------------------------------------------------------------",
"--------------------------------------------------------------------------------------------------------------------------------",
"--------------------------------------------------------------------------------------------------------------------------------",
"--------------------------------------------------------------------------------------------------------------------------------",
"--------------------------------------------------------------------------------------------------------------------------------",
"--------------------------------------------------------------------------------------------------------------------------------",
"--------------------------------------------------------------------------------------------------------------------------------",
"--------------------------------------------------------------------------------------------------------------------------------",
"--------------------------------------------------------------------------------------------------------------------------------",
"--------------------------------------------------------------------------------------------------------------------------------",
"--------------------------------------------------------------------------------------------------------------------------------",
"--------------------------------------------------------------------------------------------------------------------------------",
"--------------------------------------------------------------------------------------------------------------------------------",
"--------------------------------------------------------------------------------------------------------------------------------",
"--------------------------------------------------------------------------------------------------------------------------------",
"--------------------------------------------------------------------------------------------------------------------------------",
"--------------------------------------------------------------------------------------------------------------------------------",
"--------------------------------------------------------------------------------------------------------------------------------",
"--------------------------------------------------------------------------------------------------------------------------------",
"--------------------------------------------------------------------------------------------------------------------------------",
"--------------------------------------------------------------------------------------------------------------------------------",
"--------------------------------------------------------------------------------------------------------------------------------",
"--------------------------------------------------------------------------------------------------------------------------------",
"--------------------------------------------------------------------------------------------------------------------------------",
"--------------------------------------------------------------------------------------------------------------------------------",
"--------------------------------------------------------------------------------------------------------------------------------",
"--------------------------------------------------------------------------------------------------------------------------------",
"--------------------------------------------------------------------------------------------------------------------------------",
"--------------------------------------------------------------------------------------------------------------------------------",
"--------------------------------------------------------------------------------------------------------------------------------",
"--------------------------------------------------------------------------------------------------------------------------------",
"--------------------------------------------------------------------------------------------------------------------------------",
"--------------------------------------------------------------------------------------------------------------------------------",
"--------------------------------------------------------------------------------------------------------------------------------",
"--------------------------------------------------------------------------------------------------------------------------------",
"--------------------------------------------------------------------------------------------------------------------------------",
"--------------------------------------------------------------------------------------------------------------------------------",
"--------------------------------------------------------------------------------------------------------------------------------",
"--------------------------------------------------------------------------------------------------------------------------------",
"--------------------------------------------------------------------------------------------------------------------------------",
"--------------------------------------------------------------------------------------------------------------------------------",
"--------------------------------------------------------------------------------------------------------------------------------",
"--------------------------------------------------------------------------------------------------------------------------------",
"--------------------------------------------------------------------------------------------------------------------------------",
"--------------------------------------------------------------------------------------------------------------------------------",
"--------------------------------------------------------------------------------------------------------------------------------",
"--------------------------------------------------------------------------------------------------------------------------------",
"--------------------------------------------------------------------------------------------------------------------------------",
"--------------------------------------------------------------------------------------------------------------------------------",
"--------------------------------------------------------------------------------------------------------------------------------",
"--------------------------------------------------------------------------------------------------------------------------------",
"--------------------------------------------------------------------------------------------------------------------------------",
"--------------------------------------------------------------------------------------------------------------------------------",
"--------------------------------------------------------------------------------------------------------------------------------",
"--------------------------------------------------------------------------------------------------------------------------------",
"--------------------------------------------------------------------------------------------------------------------------------",
"--------------------------------------------------------------------------------------------------------------------------------",
"--------------------------------------------------------------------------------------------------------------------------------",
"--------------------------------------------------------------------------------------------------------------------------------",
"--------------------------------------------------------------------------------------------------------------------------------",
"--------------------------------------------------------------------------------------------------------------------------------",
"--------------------------------------------------------....--------------------------------------------------------------------",
"--------------------------------------------------------....--------------------------------------------------------------------",
"------------------------------------------------------XXooXX--------------------------------------------------------------------",
"------------------------------------------------------XXoo..--------------------------------------------------------------------",
"----------------------------------------------------XXoo##..--------------------------------------------------------------------",
"----------------------------------------------------XXoo##..--------------------------------------------------------------------",
"--------------------------------------------------XXoo##@@..--------------------------------------------------------------------",
"--------------------------------------------------XXoo##@@..--------------------------------------------------------------------",
"--------------------------------------------------XX##@@..----------------------------------------------------------------------",
"--------------------------------------------------XX##@@..----------------------------------------------------------------------",
"------------------------------------------------  ##&&XX------------------------------------------------------------------------",
"------------------------------------------------  ##&&XX------------------------------------------------------------------------",
"------------------------------------------------  $$::>>XX--XX----<<<<<<<<------------------------------------------------------",
"------------------------------------------------  $$::>>XX--XX----<<<<<<<<------------------------------------------------------",
"------------------------------------------------XX++@@@@OOXX--XX<<,,,,,,<<<<<<--------------------------------------------------",
"------------------------------------------------XX++@@@@OOXX--XX<<,,,,,,<<<<<<--------------------------------------------------",
"------------------------------------------------  $$::>>&&XX--XX--<<;;;;,,,,,,  ------------------------------------------------",
"------------------------------------------------  $$::>>&&XX--XX--<<;;;;,,,,,,  ------------------------------------------------",
"------------------------------------------------  ;;::>>@@OOXX--XXXX&&::::;;;;  ------------------------------------------------",
"------------------------------------------------  ;;::>>@@OOXX--XXXX&&::::;;;;  ------------------------------------------------",
"--------------------------------------------------XXOO@@>>&&OOXXXXOO::>>::::;;  ------------------------------------------------",
"--------------------------------------------------XXOO@@>>&&OOXXXXOO::>>::::;;  ------------------------------------------------",
"--------------------------------------------------  $$::::OO&&OO&&@@>>::::::  --------------------------------------------------",
"--------------------------------------------------  $$::::OO&&OO&&@@>>::::::  --------------------------------------------------",
"----------------------------------------------------  $$++>><<%%<<>>@@::::;;  --------------------------------------------------",
"----------------------------------------------------  $$++>><<%%<<>>@@::::;;  --------------------------------------------------",
"------------------------------------------------------XX$$;;::OO>>::OO$$;;  ----------------------------------------------------",
"------------------------------------------------------XX$$;;::OO>>::OO$$;;  ----------------------------------------------------",
"--------------------------------------------------------    $$++$$;;$$XX  ------------------------------------------------------",
"--------------------------------------------------------    $$++$$;;$$XX  ------------------------------------------------------",
"--------------------------------------------------------==**  XX      **==------------------------------------------------------",
"--------------------------------------------------------==**  XX      **==------------------------------------------------------",
"--------------------------------------------------------------------------------------------------------------------------------",
"--------------------------------------------------------------------------------------------------------------------------------",
"--------------------------------------------------------------------------------------------------------------------------------",
"--------------------------------------------------------------------------------------------------------------------------------",
"--------------------------------------------------------------------------------------------------------------------------------",
"--------------------------------------------------------------------------------------------------------------------------------",
"--------------------------------------------------------------------------------------------------------------------------------",
"--------------------------------------------------------------------------------------------------------------------------------",
"--------------------------------------------------------------------------------------------------------------------------------",
"--------------------------------------------------------------------------------------------------------------------------------",
"--------------------------------------------------------------------------------------------------------------------------------",
"--------------------------------------------------------------------------------------------------------------------------------",
"--------------------------------------------------------------------------------------------------------------------------------",
"--------------------------------------------------------------------------------------------------------------------------------",
"--------------------------------------------------------------------------------------------------------------------------------",
"--------------------------------------------------------------------------------------------------------------------------------",
"--------------------------------------------------------------------------------------------------------------------------------",
"--------------------------------------------------------------------------------------------------------------------------------"
};
