/* XPM */
static char *_74ee228dfab4456fea40cdd598eb2e5uTQ6THfrSgWiiUWc[] = {
/* columns rows colors chars-per-pixel */
"128 128 19 1 ",
"  c #43020E",
". c #65020E",
"X c #66020E",
"o c #CA2B37",
"O c #F35E17",
"+ c #EC462E",
"@ c #F37833",
"# c #E7584D",
"$ c #D27878",
"% c #FF9C58",
"& c #E8807D",
"* c #2D6AA4",
"= c #3279B9",
"- c #378AD1",
"; c #B89CAA",
": c #E9B2B2",
"> c #EBD1D0",
", c #EADFD9",
"< c #FFFEE8",
/* pixels */
"--------------------------------------------------------------------------------------------------------------------------------",
"--------------------------------------------------------------------------------------------------------------------------------",
"--------------------------------------------------------------------------------------------------------------------------------",
"--------------------------------------------------------------------------------------------------------------------------------",
"--------------------------------------------------------------------------------------------------------------------------------",
"--------------------------------------------------------------------------------------------------------------------------------",
"--------------------------------------------------------------------------------------------------------------------------------",
"--------------------------------------------------------------------------------------------------------------------------------",
"--------------------------------------------------------------------------------------------------------------------------------",
"--------------------------------------------------------------------------------------------------------------------------------",
"--------------------------------------------------------------------------------------------------------------------------------",
"--------------------------------------------------------------------------------------------------------------------------------",
"--------------------------------------------------------------------------------------------------------------------------------",
"--------------------------------------------------------------------------------------------------------------------------------",
"--------------------------------------------------------------------------------------------------------------------------------",
"--------------------------------------------------------------------------------------------------------------------------------",
"--------------------------------------------------------------------------------------------------------------------------------",
"--------------------------------------------------------------------------------------------------------------------------------",
"--------------------------------------------------------------------------------------------------------------------------------",
"--------------------------------------------------------------------------------------------------------------------------------",
"--------------------------------------------------------------------------------------------------------------------------------",
"--------------------------------------------------------------------------------------------------------------------------------",
"--------------------------------------------------------------------------------------------------------------------------------",
"--------------------------------------------------------------------------------------------------------------------------------",
"--------------------------------------------------------------------------------------------------------------------------------",
"--------------------------------------------------------------------------------------------------------------------------------",
"--------------------------------------------------------------------------------------------------------------------------------",
"--------------------------------------------------------------------------------------------------------------------------------",
"--------------------------------------------------------------------------------------------------------------------------------",
"--------------------------------------------------------------------------------------------------------------------------------",
"--------------------------------------------------------------------------------------------------------------------------------",
"--------------------------------------------------------------------------------------------------------------------------------",
"--------------------------------------------------------------------------------------------------------------------------------",
"--------------------------------------------------------------------------------------------------------------------------------",
"--------------------------------------------------------------------------------------------------------------------------------",
"--------------------------------------------------------------------------------------------------------------------------------",
"--------------------------------------------------------------------------------------------------------------------------------",
"--------------------------------------------------------------------------------------------------------------------------------",
"--------------------------------------------------------------------------------------------------------------------------------",
"--------------------------------------------------------------------------------------------------------------------------------",
"--------------------------------------------------------------------------------------------------------------------------------",
"--------------------------------------------------------------------------------------------------------------------------------",
"--------------------------------------------------------------------------------------------------------------------------------",
"--------------------------------------------------------------------------------------------------------------------------------",
"--------------------------------------------------------------------------------------------------------------------------------",
"--------------------------------------------------------------------------------------------------------------------------------",
"--------------------------------------------------------------------------------------------------------------------------------",
"--------------------------------------------------------------------------------------------------------------------------------",
"------------------------------    XX    ----------------------------------------------------------------------------------------",
"------------------------------    XX    ----------------------------------------------------------------------------------------",
"--------------------------  XX;;$$++$$##XXXX------------------------------------------------------------------------------------",
"--------------------------  XX;;$$++$$##XXXX------------------------------------------------------------------------------------",
"------------------------  $$OO::::@@::&&##ooXX----------------------------------------------------------------------------------",
"------------------------  $$OO::::@@::&&##ooXX----------------------------------------------------------------------------------",
"----------------------XX$$::@@>>>>@@>>XX@@##oo..--------------------------------------------------------------------------------",
"----------------------XX$$::@@>>>>@@>>XX@@##oo..--------------------------------------------------------------------------------",
"------------------==  $$++::>>@@&&OOXX--XX@@##oo..------------------------------------------------------------------------------",
"------------------==  $$++::>>@@&&OOXX--XX@@##oo..------------------------------------------------------------------------------",
"------------------**  ;;>>OO&&OOXXXX------XX......------------------------------------------------------------------------------",
"------------------**  ;;>>OO&&OOXXXX------........------------------------------------------------------------------------------",
"------------------  $$::<<&&OOXX----XX------------------------------------------------------------------------------------------",
"------------------  $$::<<&&OOXX----XX------------------------------------------------------------------------------------------",
"------------------XX++OO%%OOXX--XXXX--------------------------------------------------------------------------------------------",
"------------------XX++OO%%OOXX--XXXX--------------------------------------------------------------------------------------------",
"------------------  $$>><<&&XXXX--<<--------------------------------------------------------------------------------------------",
"------------------  $$>><<&&XXXX--<<--------------------------------------------------------------------------------------------",
"------------------  ;;::>>@@OOXX<<,,<<------------------------------------------------------------------------------------------",
"------------------  ;;::>>@@OOXX<<,,<<------------------------------------------------------------------------------------------",
"------------------  $$OO@@>>::&&;;,,<<------------------------------------------------------------------------------------------",
"------------------  $$OO@@>>::&&;;,,<<------------------------------------------------------------------------------------------",
"------------------**XX$$::::>>::;;,,<<------------------------------------------------------------------------------------------",
"------------------**XX$$::::>>::;;,,<<------------------------------------------------------------------------------------------",
"------------------==  ;;::::::::,,<<<<------------------------------------------------------------------------------------------",
"------------------==  ;;::::::::,,<<<<------------------------------------------------------------------------------------------",
"----------------------  ;;::::;;,,<<--------------------------------------------------------------------------------------------",
"----------------------  ;;::::;;,,<<--------------------------------------------------------------------------------------------",
"------------------------    ;;;;,,<<--------------------------------------------------------------------------------------------",
"------------------------    ;;;;,,<<--------------------------------------------------------------------------------------------",
"----------------------------      ----------------------------------------------------------------------------------------------",
"----------------------------      ----------------------------------------------------------------------------------------------",
"--------------------------------------------------------------------------------------------------------------------------------",
"--------------------------------------------------------------------------------------------------------------------------------",
"--------------------------------------------------------------------------------------------------------------------------------",
"--------------------------------------------------------------------------------------------------------------------------------",
"--------------------------------------------------------------------------------------------------------------------------------",
"--------------------------------------------------------------------------------------------------------------------------------",
"--------------------------------------------------------------------------------------------------------------------------------",
"--------------------------------------------------------------------------------------------------------------------------------",
"--------------------------------------------------------------------------------------------------------------------------------",
"--------------------------------------------------------------------------------------------------------------------------------",
"--------------------------------------------------------------------------------------------------------------------------------",
"--------------------------------------------------------------------------------------------------------------------------------",
"--------------------------------------------------------------------------------------------------------------------------------",
"--------------------------------------------------------------------------------------------------------------------------------",
"--------------------------------------------------------------------------------------------------------------------------------",
"--------------------------------------------------------------------------------------------------------------------------------",
"--------------------------------------------------------------------------------------------------------------------------------",
"--------------------------------------------------------------------------------------------------------------------------------",
"--------------------------------------------------------------------------------------------------------------------------------",
"--------------------------------------------------------------------------------------------------------------------------------",
"--------------------------------------------------------------------------------------------------------------------------------",
"--------------------------------------------------------------------------------------------------------------------------------",
"--------------------------------------------------------------------------------------------------------------------------------",
"--------------------------------------------------------------------------------------------------------------------------------",
"--------------------------------------------------------------------------------------------------------------------------------",
"--------------------------------------------------------------------------------------------------------------------------------",
"--------------------------------------------------------------------------------------------------------------------------------",
"--------------------------------------------------------------------------------------------------------------------------------",
"--------------------------------------------------------------------------------------------------------------------------------",
"--------------------------------------------------------------------------------------------------------------------------------",
"--------------------------------------------------------------------------------------------------------------------------------",
"--------------------------------------------------------------------------------------------------------------------------------",
"--------------------------------------------------------------------------------------------------------------------------------",
"--------------------------------------------------------------------------------------------------------------------------------",
"--------------------------------------------------------------------------------------------------------------------------------",
"--------------------------------------------------------------------------------------------------------------------------------",
"--------------------------------------------------------------------------------------------------------------------------------",
"--------------------------------------------------------------------------------------------------------------------------------",
"--------------------------------------------------------------------------------------------------------------------------------",
"--------------------------------------------------------------------------------------------------------------------------------",
"--------------------------------------------------------------------------------------------------------------------------------",
"--------------------------------------------------------------------------------------------------------------------------------",
"--------------------------------------------------------------------------------------------------------------------------------",
"--------------------------------------------------------------------------------------------------------------------------------",
"--------------------------------------------------------------------------------------------------------------------------------",
"--------------------------------------------------------------------------------------------------------------------------------",
"--------------------------------------------------------------------------------------------------------------------------------",
"--------------------------------------------------------------------------------------------------------------------------------"
};
