/* XPM */
static char *ad7a9aad5a694b1f8a9a7f64f12086da8PSw4yGG8I7E91sK[] = {
/* columns rows colors chars-per-pixel */
"128 128 19 1 ",
"  c #43020E",
". c #65020E",
"X c #66020E",
"o c #CA2B37",
"O c #F35E17",
"+ c #EC462E",
"@ c #F37833",
"# c #E7584D",
"$ c #D27878",
"% c #FF9C58",
"& c #E8807D",
"* c #2D6AA4",
"= c #3279B9",
"- c #378AD1",
"; c #B89CAA",
": c #E9B2B2",
"> c #EBD1D0",
", c #EADFD9",
"< c #FFFEE8",
/* pixels */
"--------------------------------------------------------------------------------------------------------------------------------",
"--------------------------------------------------------------------------------------------------------------------------------",
"--------------------------------------------------------------------------------------------------------------------------------",
"--------------------------------------------------------------------------------------------------------------------------------",
"--------------------------------------------------------------------------------------------------------------------------------",
"--------------------------------------------------------------------------------------------------------------------------------",
"--------------------------------------------------------------------------------------------------------------------------------",
"--------------------------------------------------------------------------------------------------------------------------------",
"--------------------------------------------------------------------------------------------------------------------------------",
"--------------------------------------------------------------------------------------------------------------------------------",
"--------------------------------------------------------------------------------------------------------------------------------",
"--------------------------------------------------------------------------------------------------------------------------------",
"--------------------------------------------------------------------------------------------------------------------------------",
"--------------------------------------------------------------------------------------------------------------------------------",
"--------------------------------------------------------------------------------------------------------------------------------",
"--------------------------------------------------------------------------------------------------------------------------------",
"--------------------------------------------------------------------------------------------------------------------------------",
"--------------------------------------------------------------------------------------------------------------------------------",
"--------------------------------------------------------------------------------------------------------------------------------",
"--------------------------------------------------------------------------------------------------------------------------------",
"--------------------------------------------------------------------------------------------------------------------------------",
"--------------------------------------------------------------------------------------------------------------------------------",
"--------------------------------------------------------------------------------------------------------------------------------",
"--------------------------------------------------------------------------------------------------------------------------------",
"--------------------------------------------------------------------------------------------------------------------------------",
"--------------------------------------------------------------------------------------------------------------------------------",
"--------------------------------------------------------------------------------------------------------------------------------",
"--------------------------------------------------------------------------------------------------------------------------------",
"--------------------------------------------------------------------------------------------------------------------------------",
"--------------------------------------------------------------------------------------------------------------------------------",
"--------------------------------------------------------------------------------------------------------------------------------",
"--------------------------------------------------------------------------------------------------------------------------------",
"--------------------------------------------------------------------------------------------------------------------------------",
"--------------------------------------------------------------------------------------------------------------------------------",
"--------------------------------------------------------------------------------------------------------------------------------",
"--------------------------------------------------------------------------------------------------------------------------------",
"--------------------------------------------------------------------------------------------------------------------------------",
"--------------------------------------------------------------------------------------------------------------------------------",
"--------------------------------------------------------------------------------------------------------------------------------",
"--------------------------------------------------------------------------------------------------------------------------------",
"--------------------------------------------------------------------------------------------------------------------------------",
"--------------------------------------------------------------------------------------------------------------------------------",
"--------------------------------------------------------------------------------------------------------------------------------",
"--------------------------------------------------------------------------------------------------------------------------------",
"--------------------------------------------------------------------------------------------------------------------------------",
"--------------------------------------------------------------------------------------------------------------------------------",
"--------------------------------------------------------------------------------------------------------------------------------",
"--------------------------------------------------------------------------------------------------------------------------------",
"----------------------------------------------------------------------------------------------      ----------------------------",
"----------------------------------------------------------------------------------------------      ----------------------------",
"--------------------------------------------------------------------------------------------<<,,;;;;    ------------------------",
"--------------------------------------------------------------------------------------------<<,,;;;;    ------------------------",
"--------------------------------------------------------------------------------------------<<,,;;::::;;  ----------------------",
"--------------------------------------------------------------------------------------------<<,,;;::::;;  ----------------------",
"------------------------------------------------------------------------------------------<<<<,,::::::::;;  ==------------------",
"------------------------------------------------------------------------------------------<<<<,,::::::::;;  ==------------------",
"------------------------------------------------------------------------------------------<<,,;;::>>::::$$XX**------------------",
"------------------------------------------------------------------------------------------<<,,;;::>>::::$$XX**------------------",
"------------------------------------------------------------------------------------------<<,,;;&&::>>@@OO$$  ------------------",
"------------------------------------------------------------------------------------------<<,,;;&&::>>@@OO$$  ------------------",
"------------------------------------------------------------------------------------------<<,,<<XXOO@@>>::;;  ------------------",
"------------------------------------------------------------------------------------------<<,,<<XXOO@@>>::;;  ------------------",
"--------------------------------------------------------------------------------------------<<--XXXX&&<<>>$$  ------------------",
"--------------------------------------------------------------------------------------------<<--XXXX&&<<>>$$  ------------------",
"--------------------------------------------------------------------------------------------XXXX--XXOO%%OO++XX------------------",
"--------------------------------------------------------------------------------------------XXXX--XXOO%%OO++XX------------------",
"------------------------------------------------------------------------------------------XX----XXOO&&<<::$$  ------------------",
"------------------------------------------------------------------------------------------XX----XXOO&&<<::$$  ------------------",
"------------------------------------------------------------------------------XX......------XXXXOO&&OO>>;;  **------------------",
"------------------------------------------------------------------------------XX......------XXXXOO&&OO>>;;  **------------------",
"------------------------------------------------------------------------------XXoo##@@..--XXOO&&@@>>::++$$  ==------------------",
"------------------------------------------------------------------------------..oo##@@..--XXOO&&@@>>::++$$  ==------------------",
"--------------------------------------------------------------------------------..oo##@@XX>>@@>>>>@@::$$XX----------------------",
"--------------------------------------------------------------------------------..oo##@@XX>>@@>>>>@@::$$XX----------------------",
"----------------------------------------------------------------------------------XXoo##&&::@@::::OO$$  ------------------------",
"----------------------------------------------------------------------------------XXoo##&&::@@::::OO$$  ------------------------",
"------------------------------------------------------------------------------------XXXX##$$++$$;;XX  --------------------------",
"------------------------------------------------------------------------------------XXXX##$$++$$;;XX  --------------------------",
"----------------------------------------------------------------------------------------    XX    ------------------------------",
"----------------------------------------------------------------------------------------    XX    ------------------------------",
"--------------------------------------------------------------------------------------------------------------------------------",
"--------------------------------------------------------------------------------------------------------------------------------",
"--------------------------------------------------------------------------------------------------------------------------------",
"--------------------------------------------------------------------------------------------------------------------------------",
"--------------------------------------------------------------------------------------------------------------------------------",
"--------------------------------------------------------------------------------------------------------------------------------",
"--------------------------------------------------------------------------------------------------------------------------------",
"--------------------------------------------------------------------------------------------------------------------------------",
"--------------------------------------------------------------------------------------------------------------------------------",
"--------------------------------------------------------------------------------------------------------------------------------",
"--------------------------------------------------------------------------------------------------------------------------------",
"--------------------------------------------------------------------------------------------------------------------------------",
"--------------------------------------------------------------------------------------------------------------------------------",
"--------------------------------------------------------------------------------------------------------------------------------",
"--------------------------------------------------------------------------------------------------------------------------------",
"--------------------------------------------------------------------------------------------------------------------------------",
"--------------------------------------------------------------------------------------------------------------------------------",
"--------------------------------------------------------------------------------------------------------------------------------",
"--------------------------------------------------------------------------------------------------------------------------------",
"--------------------------------------------------------------------------------------------------------------------------------",
"--------------------------------------------------------------------------------------------------------------------------------",
"--------------------------------------------------------------------------------------------------------------------------------",
"--------------------------------------------------------------------------------------------------------------------------------",
"--------------------------------------------------------------------------------------------------------------------------------",
"--------------------------------------------------------------------------------------------------------------------------------",
"--------------------------------------------------------------------------------------------------------------------------------",
"--------------------------------------------------------------------------------------------------------------------------------",
"--------------------------------------------------------------------------------------------------------------------------------",
"--------------------------------------------------------------------------------------------------------------------------------",
"--------------------------------------------------------------------------------------------------------------------------------",
"--------------------------------------------------------------------------------------------------------------------------------",
"--------------------------------------------------------------------------------------------------------------------------------",
"--------------------------------------------------------------------------------------------------------------------------------",
"--------------------------------------------------------------------------------------------------------------------------------",
"--------------------------------------------------------------------------------------------------------------------------------",
"--------------------------------------------------------------------------------------------------------------------------------",
"--------------------------------------------------------------------------------------------------------------------------------",
"--------------------------------------------------------------------------------------------------------------------------------",
"--------------------------------------------------------------------------------------------------------------------------------",
"--------------------------------------------------------------------------------------------------------------------------------",
"--------------------------------------------------------------------------------------------------------------------------------",
"--------------------------------------------------------------------------------------------------------------------------------",
"--------------------------------------------------------------------------------------------------------------------------------",
"--------------------------------------------------------------------------------------------------------------------------------",
"--------------------------------------------------------------------------------------------------------------------------------",
"--------------------------------------------------------------------------------------------------------------------------------",
"--------------------------------------------------------------------------------------------------------------------------------",
"--------------------------------------------------------------------------------------------------------------------------------"
};
