/* XPM */
static char *_e44fdc37d2842f2db3fc14d76ead213O2f8UdaSx3AnZUb1[] = {
/* columns rows colors chars-per-pixel */
"128 128 19 1 ",
"  c #43020E",
". c #65020E",
"X c #66020E",
"o c #CA2B37",
"O c #F35E17",
"+ c #EC462E",
"@ c #F37833",
"# c #E7584D",
"$ c #D27878",
"% c #FF9C58",
"& c #E8807D",
"* c #2D6AA4",
"= c #3279B9",
"- c #378AD1",
"; c #B89CAA",
": c #E9B2B2",
"> c #EBD1D0",
", c #EADFD9",
"< c #FFFEE8",
/* pixels */
"--------------------------------------------------------------------------------------------------------------------------------",
"--------------------------------------------------------------------------------------------------------------------------------",
"--------------------------------------------------------------------------------------------------------------------------------",
"--------------------------------------------------------------------------------------------------------------------------------",
"--------------------------------------------------------------------------------------------------------------------------------",
"--------------------------------------------------------------------------------------------------------------------------------",
"--------------------------------------------------------------------------------------------------------------------------------",
"--------------------------------------------------------------------------------------------------------------------------------",
"--------------------------------------------------------------------------------------------------------------------------------",
"--------------------------------------------------------------------------------------------------------------------------------",
"--------------------------------------------------------------------------------------------------------------------------------",
"--------------------------------------------------------------------------------------------------------------------------------",
"--------------------------------------------------------------------------------------------------------------------------------",
"--------------------------------------------------------------------------------------------------------------------------------",
"--------------------------------------------------------------------------------------------------------------------------------",
"--------------------------------------------------------------------------------------------------------------------------------",
"--------------------------------------------------------------------------------------------------------------------------------",
"--------------------------------------------------------------------------------------------------------------------------------",
"------------------------------------------------------==**      XX  **==--------------------------------------------------------",
"------------------------------------------------------==**      XX  **==--------------------------------------------------------",
"------------------------------------------------------  XX$$;;$$++$$    --------------------------------------------------------",
"------------------------------------------------------  XX$$;;$$++$$    --------------------------------------------------------",
"----------------------------------------------------  ;;$$OO::>>OO::;;$$XX------------------------------------------------------",
"----------------------------------------------------  ;;$$OO::>>OO::;;$$XX------------------------------------------------------",
"--------------------------------------------------  ;;::::@@>><<%%<<>>++$$  ----------------------------------------------------",
"--------------------------------------------------  ;;::::@@>><<%%<<>>++$$  ----------------------------------------------------",
"--------------------------------------------------  ::::::>>@@&&OO&&OO::::$$  --------------------------------------------------",
"--------------------------------------------------  ::::::>>@@&&OO&&OO::::$$  --------------------------------------------------",
"------------------------------------------------  ;;::::>>::OOXXXXOO&&>>@@OOXX--------------------------------------------------",
"------------------------------------------------  ;;::::>>::OOXXXXOO&&>>@@OOXX--------------------------------------------------",
"------------------------------------------------  ;;;;::::&&XXXX--XXOO@@>>::;;  ------------------------------------------------",
"------------------------------------------------  ;;;;::::&&XXXX--XXOO@@>>::;;  ------------------------------------------------",
"------------------------------------------------  ,,,,,,;;;;<<--XX--XX&&>>::$$  ------------------------------------------------",
"------------------------------------------------  ,,,,,,;;;;<<--XX--XX&&>>::$$  ------------------------------------------------",
"--------------------------------------------------<<<<<<,,,,,,<<XX--XXOO@@@@++XX------------------------------------------------",
"--------------------------------------------------<<<<<<,,,,,,<<XX--XXOO@@@@++XX------------------------------------------------",
"------------------------------------------------------<<<<<<<<----XX--XX>>::$$  ------------------------------------------------",
"------------------------------------------------------<<<<<<<<----XX--XX>>::$$  ------------------------------------------------",
"------------------------------------------------------------------------XX&&##  ------------------------------------------------",
"------------------------------------------------------------------------XX&&##  ------------------------------------------------",
"----------------------------------------------------------------------XX@@##XX--------------------------------------------------",
"----------------------------------------------------------------------..@@##XX--------------------------------------------------",
"--------------------------------------------------------------------..@@##ooXX--------------------------------------------------",
"--------------------------------------------------------------------..@@##ooXX--------------------------------------------------",
"--------------------------------------------------------------------..##ooXX----------------------------------------------------",
"--------------------------------------------------------------------..##ooXX----------------------------------------------------",
"--------------------------------------------------------------------..ooXX------------------------------------------------------",
"--------------------------------------------------------------------..ooXX------------------------------------------------------",
"--------------------------------------------------------------------....--------------------------------------------------------",
"--------------------------------------------------------------------....--------------------------------------------------------",
"--------------------------------------------------------------------------------------------------------------------------------",
"--------------------------------------------------------------------------------------------------------------------------------",
"--------------------------------------------------------------------------------------------------------------------------------",
"--------------------------------------------------------------------------------------------------------------------------------",
"--------------------------------------------------------------------------------------------------------------------------------",
"--------------------------------------------------------------------------------------------------------------------------------",
"--------------------------------------------------------------------------------------------------------------------------------",
"--------------------------------------------------------------------------------------------------------------------------------",
"--------------------------------------------------------------------------------------------------------------------------------",
"--------------------------------------------------------------------------------------------------------------------------------",
"--------------------------------------------------------------------------------------------------------------------------------",
"--------------------------------------------------------------------------------------------------------------------------------",
"--------------------------------------------------------------------------------------------------------------------------------",
"--------------------------------------------------------------------------------------------------------------------------------",
"--------------------------------------------------------------------------------------------------------------------------------",
"--------------------------------------------------------------------------------------------------------------------------------",
"--------------------------------------------------------------------------------------------------------------------------------",
"--------------------------------------------------------------------------------------------------------------------------------",
"--------------------------------------------------------------------------------------------------------------------------------",
"--------------------------------------------------------------------------------------------------------------------------------",
"--------------------------------------------------------------------------------------------------------------------------------",
"--------------------------------------------------------------------------------------------------------------------------------",
"--------------------------------------------------------------------------------------------------------------------------------",
"--------------------------------------------------------------------------------------------------------------------------------",
"--------------------------------------------------------------------------------------------------------------------------------",
"--------------------------------------------------------------------------------------------------------------------------------",
"--------------------------------------------------------------------------------------------------------------------------------",
"--------------------------------------------------------------------------------------------------------------------------------",
"--------------------------------------------------------------------------------------------------------------------------------",
"--------------------------------------------------------------------------------------------------------------------------------",
"--------------------------------------------------------------------------------------------------------------------------------",
"--------------------------------------------------------------------------------------------------------------------------------",
"--------------------------------------------------------------------------------------------------------------------------------",
"--------------------------------------------------------------------------------------------------------------------------------",
"--------------------------------------------------------------------------------------------------------------------------------",
"--------------------------------------------------------------------------------------------------------------------------------",
"--------------------------------------------------------------------------------------------------------------------------------",
"--------------------------------------------------------------------------------------------------------------------------------",
"--------------------------------------------------------------------------------------------------------------------------------",
"--------------------------------------------------------------------------------------------------------------------------------",
"--------------------------------------------------------------------------------------------------------------------------------",
"--------------------------------------------------------------------------------------------------------------------------------",
"--------------------------------------------------------------------------------------------------------------------------------",
"--------------------------------------------------------------------------------------------------------------------------------",
"--------------------------------------------------------------------------------------------------------------------------------",
"--------------------------------------------------------------------------------------------------------------------------------",
"--------------------------------------------------------------------------------------------------------------------------------",
"--------------------------------------------------------------------------------------------------------------------------------",
"--------------------------------------------------------------------------------------------------------------------------------",
"--------------------------------------------------------------------------------------------------------------------------------",
"--------------------------------------------------------------------------------------------------------------------------------",
"--------------------------------------------------------------------------------------------------------------------------------",
"--------------------------------------------------------------------------------------------------------------------------------",
"--------------------------------------------------------------------------------------------------------------------------------",
"--------------------------------------------------------------------------------------------------------------------------------",
"--------------------------------------------------------------------------------------------------------------------------------",
"--------------------------------------------------------------------------------------------------------------------------------",
"--------------------------------------------------------------------------------------------------------------------------------",
"--------------------------------------------------------------------------------------------------------------------------------",
"--------------------------------------------------------------------------------------------------------------------------------",
"--------------------------------------------------------------------------------------------------------------------------------",
"--------------------------------------------------------------------------------------------------------------------------------",
"--------------------------------------------------------------------------------------------------------------------------------",
"--------------------------------------------------------------------------------------------------------------------------------",
"--------------------------------------------------------------------------------------------------------------------------------",
"--------------------------------------------------------------------------------------------------------------------------------",
"--------------------------------------------------------------------------------------------------------------------------------",
"--------------------------------------------------------------------------------------------------------------------------------",
"--------------------------------------------------------------------------------------------------------------------------------",
"--------------------------------------------------------------------------------------------------------------------------------",
"--------------------------------------------------------------------------------------------------------------------------------",
"--------------------------------------------------------------------------------------------------------------------------------",
"--------------------------------------------------------------------------------------------------------------------------------",
"--------------------------------------------------------------------------------------------------------------------------------",
"--------------------------------------------------------------------------------------------------------------------------------",
"--------------------------------------------------------------------------------------------------------------------------------",
"--------------------------------------------------------------------------------------------------------------------------------",
"--------------------------------------------------------------------------------------------------------------------------------"
};
