/* XPM */
static char * player_right_1_xpm[] = {
"128 128 20 1",
" 	c None",
".	c #72751B",
"+	c #7F8226",
"@	c #787B21",
"#	c #656C17",
"$	c #6D6DDB",
"%	c #494900",
"&	c #9292DB",
"*	c #DBB66D",
"=	c #FFDBB6",
"-	c #242424",
";	c #244924",
">	c #49496D",
",	c #B6B6FF",
"'	c #249224",
")	c #24246D",
"!	c #49B624",
"~	c #DBDBFF",
"{	c #7F8124",
"]	c #686F16",
"................................................................................................................................",
"................................................................................................................................",
"................................................................................................................................",
"................................................................................................................................",
"................................................................................................................................",
"........................................................................................+@@.....................................",
".........................................................................................@@@....................................",
"........................................+.................................................##....................................",
"........................................@@......................................................................................",
"....................................++@.#@......................................................................................",
".....................................+@@##.++@..................................................................................",
"..................................@+.#@@.#@@+...................................................................................",
"...................................+@@#@.@@@....................................................................................",
"...................................#@@.##@@#...............................+....................................................",
"....................................#@..###.........................@++...+.....................................................",
".....................................#.@@............................+@@.++.................................@@..................",
".......................................+#............................#@@.@@................................+@...................",
".......................................#..............................#@#@#...............................@@#...................",
".......................................................................#.#............................++@.@@#...................",
".......................................................................................................+@@#@#...................",
".......................................................................................................#@@##....................",
"........................................................................................................##......................",
"................................................................................................................................",
"................................................................................................................................",
"...........................................................................................................................+....",
"....................................................................................................................@++...+.....",
".....................................................................................................................+@@.++.....",
".....................................................................................................................#@@.@@.....",
"......................................................................................................................#@.@#.....",
".......................................................................................................................#.#......",
"................................................................................................................................",
"................................................................................................................................",
"................................................................................................................................",
"................................................................................................................................",
"................................................................................................................................",
"................................................................................................................................",
"................................................................................................................................",
"................................................................................................................................",
"......................................................................................++........................................",
".......................................................................................+@....+..................................",
".........................................................+.............................@@@.@+...................................",
"....................................................++@..@@.........................+@@#@@@@#...................................",
".....................................................+@@.#@..+.......................@@@##@@#...................................",
".....................................................#@@@#.@@#.......................#@@..@#....................................",
"...........+........................................+@#@@..@@#........................#@........................................",
"......++@..@@.......................................#@@#@..##...........................................+@......................",
".......+@@.#@..+.....................................#@##$$$%%%%%%$................................+@..@+#......................",
".......#@@@#.@@#...................................$.$$%$&**=*$$$$%%%%%%%%.........................#@@.@@.......................",
"......+@#@@..@@#................................$$%%%$-$*==*$==*$%$&**==*$$%%.......................#@@@#.......................",
"......#@@#@..##...............................&$%&*=*%$*=*==$$%$%-**=*$%%%*$%%%.....................#@@#........................",
".......#@##..................................&%*=.==*%*=*$$**$$%--%$$*=*$%%%-$$%%....................#@.........................",
"............................................&%*=.*$*$%$*=**$%---%%-%%$$%----$**$$%%.............................................",
"...........................................%%$===$$$---%%$%--$$*=*%-%---$%%-$$$$*$$%............................................",
".........................................$%$%$$*$$-%$$$%-%-$*=*$$%*%--%$$$$%-*$*$*%$%...........................................",
".......................................$%$$%**%$-%$=$=$*$-%*=**=*$%%%-$****$%-*$*$$%%%%.................................@++.....",
"......................................$$*$%*$%=-$==***%*$-$=**$**$%--%*$$%**$-%$$%%$%%-%%%.............................@@+......",
".....................................$$=$**=*%*-==*$$**%$%*=**$$$%%%-%=$***%$%-%%%$%%---$$%%...........................@@#......",
".....................................$=$**=$*$-$=*$%%$*%$%==$**%%%%%-%=*$%%%*%-%%$%--%%%-$$$%..........................##.......",
"....................................%=$$****$%-***$%%%*%-$=*=$%%-%--%$=****%%%%-%%-$*$$%%-%$$%..................................",
"...................................%*$%$*$%$%%%=$*%--%$%-*=$***$$%%%-%**$%%%%%%%-%$*$$%%%%%-$-..................................",
"..................................%%$-$*$%%%%-$*=%%-%-$-%**=$$%%%%$%-$=****$%%$%--%$*$$$$$$%-;..$$>>$$$%%$......................",
".................................%$--%$$**$%%%$$*$$%-%-%$$*****$%$%--$=*$%%%%$%-%$$-$*$$*$&$-$>>>>>$&&,,&$%$....................",
"................................$$%$$-%$$$%%-$**%%--%-%-$*=$$%%%%%%%-$*===%%%%-%$*$%-%$*$*$-%%;>$>$>$>$$$&$>%$..................",
"................................%*%**$$--%%%-$$**$$%%%--%$*=**$%$%%--%%$$$$$%--$**%*$$-%$$%-;%';>$>->->;>>$$>%..................",
"...............................$*%****$-$$%--%$$%%%-%-----%%%%---------%-----*-$&&***%%$---%-';>'>;>->&;;;>>;%..................",
"...............................*$$*%%$-$*****$-------%$$$$%-%-$*&&$-%%%--$&**%%$%&**$%%$&$--%$;;>'>-;--%;;;;%-..................",
"..............................$&%*$%%%%*==*$%%-&**&&-$***&&$-%==*%&-$*$$-$**%*%%$%&&%%$&*$--;'>;;>>;-;%;;;>;-%..................",
"..............................%-$*%*%-*$%*$%%%%**=*&-*==*%&%-$=*%%%-*=*$%-$***%%%$-&&&*&$-%;-;'>;;;;;>>;))))%...................",
".............................$-%$$*$%*$%%%%%%-&**$%%-*$%%%%%-**&$$%-=$%%%%%&*$%%%$$-%$$--%;;;->';;>>;))))>$%'...................",
".............................>>-%%%%-$$%-%%$%-**$*&%%$**%%%&-=&$%%%%*==*$%-$*%**$$%----;>>;-;;;;;););>$$$>>'....................",
".............................$$$$%---%%$%$**%-&=*%%%$%*==*%%-**&$%%$%*$%%%%-$*$$%---'>-;;;;;>>;;>>>>$>%%%''.........@+....++....",
"..................................$)%--%$$**&-$**&%%*-**$%%&-*$%%%%%-*=**$$%-$$-->$>%$>-;>>;)));;;%%%%%''............++..@+.....",
"..................................>$*)%-%%%$$$%$$&**&-&**&&%%$&%%%%%$%&*$%%%%--;>$!$**'%););>$$$%%''.................@@.@@#.....",
"...................@+....@@......$)>)$*$>---%%%---%$$$-$$&%$$%$&$%$%-$$$%-%---%$%*$>$$!$;>>$>%%%$'...................##.@@#.....",
"....................++..@@.......>*)!)$>>)>$>%---------%%%%%%-%%%%%--------%>);%>>>$*%$*'$%%%%''........................##......",
"....................#@@.@@.......%>)$>))))>...$$$>>%%%%------------))))))))));;)')$*$!%>'>'.....................................",
"....................#@@.##......$>)$*>!'))$........$$$>>>>>>>>>>>>>>>>>>>''$$$)))%)$>>*$>;$.....................................",
".....................##.......%.>!>%>%>));$..............$$$$$$$$$$$$$$.......$%;);)$>$>)>~$....................................",
"...............................$>>))!))))>................+..................{.$%;)>!*>%>)&.$...................................",
"...............................>,$>$$)>>)>...............@@...................{@$%))>$%$)$)&,...................................",
"..............................$,&$),>)&$>................@@#.................]@@.$)%)%$)$,$)&...................................",
".............................$&$>),>)&$>.................##@+.................]@.$%)$)%))&~.)...................................",
"...........................................................@@..................]..$%)%)&>)&$....................................",
"...........................................................##.......................)&)$,))&....................................",
"....................................................................................)$.)&..$....................................",
"......................................++.....+..................................................................................",
".......................................+@@.@+...................................................................................",
"....................................@++#@#@@#...................................................................................",
".....................................+@@##@@#...................................................................................",
".....................................#@@..@#.........................@{{........................................................",
"......................................#@..............................{@@.......................................................",
"......................................................................]@@.......................................................",
".......................................................................]].......................................................",
"................................................................................................................................",
"................................................................................................................................",
"................................................................................................................................",
"................................................................................................................................",
"................................................................................................................................",
"................................................................................................................................",
"......{.........................................................................................................................",
".......{...........................@@...........................................................................................",
".......@@..........................]{{.....................................................@....................................",
"......]@@...........................{@@...@...............................................{{....................................",
".....{@]]...........................]@@.{@...............................................@{]....................................",
".....@@.............................]@@@{{............{..................................@@.....................................",
".....]]..............................]]@@]...........@@..{{@.............................]].....................................",
".......................................]].........@..@].@@{.....................................................................",
"...................................................{@]..@@]...........................................................{.........",
"...................................................@@..@@]@{.........................................................@@..@{{....",
"....................................................]..@]@@]......................................................{..@].@@{.....",
".......................................................]]@].......................................................]@@.]@@@].....",
"..................................................................................................................]@@..@@]@{....",
"..............................................{{@..................................................................]]..@]@@]....",
"...............................................{@@.....................................................................]]@].....",
".......{{.....{.............@..................]@@....................{{....@@...............................{{@................",
"........{@@.@{..............@@..................]].....................{@@.{{.................................{@@...............",
".....@{{]@]@@]..............]@......................................@{{]@]@@].................................]@@...............",
"......{@@]]@@]...............].......................................{@@]]@@]..................................]]...............",
"......]@@..@]........................................................]@@..@]....................................................",
".......]@..........................{{....@@...........................]@........................................................",
".................{{...{.............{@..@@...................{{.................................................................",
"..................{{.{..............]@@.@@..............@..@@{..................................................................",
"..................@@]@..............]@@.]]..............{{]@@]..................................................................",
"..................]@]]...............]].................{@@]]...................................................................",
"...................]....................................]@@.....................................................................",
"................................................................................................................................",
"................................................................................................................................",
"................................................................................................................................"};
