/* XPM */
static char * shark_d_1_128_xpm[] = {
"128 128 7 1",
" 	c None",
".	c #378AD1",
"+	c #8088B4",
"@	c #626A8E",
"#	c #3773AD",
"$	c #455075",
"%	c #373C55",
"................................................................................................................................",
"................................................................................................................................",
"................................................................................................................................",
"................................................................................................................................",
"................................................................................................................................",
"................................................................................................................................",
"................................................................................................................................",
"................................................................................................................................",
"....................................................................+...........................................................",
"...................................................................++...........................................................",
"...................................................................+............................................................",
"...................................................................+............................................................",
"...................................................................+.@..........................................................",
"..................................................................++.@..........................................................",
"..................................................................++.@..........................................................",
"..................................................................+@@@..........................................................",
".................................................................++@@@..........................................................",
".................................................................++@@@..........................................................",
".................................................................++@@...........................................................",
".................................................................++@@...........................................................",
".................................................................++@@#..........................................................",
".................................................................++@@#..........................................................",
"................................................................+++@.#..........................................................",
"................................................................+++@##..........................................................",
"................................................................+++@##..........................................................",
"................................................................+++@##..........................................................",
"...............................................................@++++@...........................................................",
"...............................................................+++++@...........................................................",
"...............................................................+++++@...........................................................",
"..............................................................@++++++...........................................................",
"..............................................................+++++++@..........................................................",
"..............................................................+++++++@..........................................................",
".............................................................+++++++++..........................................................",
".............................................................+++++++++..........................................................",
".......................................................+.....++++++++@...++.....................................................",
".......................................................+++...++++++++@..++@.....................................................",
".......................................................++++.@++++++++@@+++......................................................",
".......................................................++++@+++++++++@@+++......................................................",
"........................................................+++@++++++++++@++.......................................................",
"........................................................@++@++++++++++@++.......................................................",
".........................................................++@++++++++++@++.......................................................",
".........................................................@++++++++++++@+@.......................................................",
"..........................................................@++++++++++++@........................................................",
".......................................................#..@++++++++++++@.##.....................................................",
".......................................................###++++++++++++++##......................................................",
".......................................................###++++++++++++++@#......................................................",
".......................................................##@++++++++++++++@#......................................................",
"........................................................#@++++++++++++++@.......................................................",
"........................................................#+++++++++++++++@.......................................................",
"........................................................@++++++++++++++++.......................................................",
"........................................................@++++++++++++++++.......................................................",
"........................................................+++++++++++++++++.......................................................",
"........................................................+++++++++++++++++.......................................................",
".......................................................@+++++++++++++++++.......................................................",
".......................................................@+++++++++++++++++.......................................................",
".......................................................++++++++++++++++++.......................................................",
".......................................................++++++++++++++++++.......................................................",
".......................................................++++++++++++++++++.......................................................",
".......................................................++++++++++++++++++.......................................................",
".......................................................++++++++@+++++++++.......................................................",
".......................................................++++++++$+++++++++.......................................................",
"......................................................@+++++++@$@++++++++.......................................................",
"......................................................@+++++++$@$++++++++.......................................................",
"......................................................++++++++$+$++++++++@......................................................",
"......................................................++++++++$+$++++++++@......................................................",
"......................................................+++++++@$+$@+++++++@......................................................",
".....................................................@+++++++@$+$@+++++++@......................................................",
".....................................................@+++++++@$+$@++++++++......................................................",
".....................................................@+++++++@$+$@++++++++......................................................",
".....................................................@+++++++$@+@$++++++++......................................................",
".....................................................++++++++$@+@$++++++++......................................................",
".....................................................++++++++$@+@$++++++++......................................................",
"....................................................@++++++++$@+@$@+++++++......................................................",
"....................................................@++++++++$@+@$@+++++++@.....................................................",
".......................................+++..........@++++++++$@+@$@+++++++@..........+++........................................",
".......................................+++++........@++++++++$@+@$@+++++++@.........++++........................................",
".......................................++++++.......+++++++++$@+@$@+++++++@.......++++++........................................",
".......................................@+++++++....@+++++++++$@+@$@+++++++@+....+++++++@........................................",
"........................................+++++++++++@+++++++++$@+@$@+++++++@++++++++++++.........................................",
".........................................@+++++++++@+++++++++$@+@$@+++++++@++++++++++@..........................................",
".........................................@@++++++++@+++++++++@@+@@++++++++@+++++++++@@..........................................",
"..........................................@@+++++++@+++++++++@@+@@++++++++@+++++++++@...........................................",
"...........................................@+++++++@+++++++++@@+@@++++++++@++++++++@............................................",
".......................................###..@@+++++@++++++++++@+@+++++++++@++++++@@@.###........................................",
".......................................######.@@@++@+@++++++++@+@+++++++++@++++@@.######........................................",
".......................................########@@@++$+++++++++@+@++++++++$+++@@@########........................................",
"........................................#########@@$@++++++++++++++++++++@$@@@@########.........................................",
"........................................##########@@@@+++++++++++++++++++@@@@##########.........................................",
".........................................##########@$++++++++++++++++++++$@###########..........................................",
".........................................##########$@++++++++++++++++++++@$###########..........................................",
"...........................................########@@@+++++++++++++++++++@@#########............................................",
"............................................#######@$++++++++++++++++++++$@#########............................................",
"............................................#######$@++++++++++++++++++++@$########.............................................",
"..............................................#####$@++++++++++++++++++++@$######...............................................",
"...............................................####@@++++++++++++++++++++@@#####................................................",
".................................................##@@++++++++++++++++++++@@####.................................................",
"...................................................@@++++++++++++++++++++@@.....................................................",
"...................................................#@@+++++++++++++++++++@@.....................................................",
"...................................................#@@+++++++++++++++++++@@.....................................................",
"...................................................#@@+++++++++++++++++++@#.....................................................",
"...................................................#@+@+++++++++++++++++@@#.....................................................",
"...................................................#@+%+++++++++++++++++%@#.....................................................",
"...................................................##@+++++++++++++++++@+@#.....................................................",
"...................................................##@@+++++++++++++++@@@##.....................................................",
"...................................................##@@+++++++++++++++@@@##.....................................................",
"...................................................##@@+++++++++++++++@@@##.....................................................",
"....................................................##@@+++++++++++++@@@@##.....................................................",
"....................................................##@@+++++++++++++@@@@##.....................................................",
"....................................................###@@+++++++++++@@@@##......................................................",
"....................................................###@@+++++++++++@@@@##......................................................",
".....................................................##@@@+++++++++@@@@###......................................................",
".....................................................##@@$@++++++++@$@@###......................................................",
".....................................................###@$$++++++++$$@###.......................................................",
".....................................................#####@@@+++++@@#####.......................................................",
"......................................................#####@@@@@@@@######.......................................................",
"......................................................######@@@@@@@######.......................................................",
"......................................................###################.......................................................",
".......................................................#################........................................................",
".......................................................#################........................................................",
".......................................................################.........................................................",
"........................................................##############..........................................................",
".........................................................############...........................................................",
"..........................................................##########............................................................",
"................................................................................................................................",
"................................................................................................................................",
"................................................................................................................................",
"................................................................................................................................",
"................................................................................................................................"};
