/* XPM */
static char * shark_r_1_128_xpm[] = {
"128 128 9 1",
" 	c None",
".	c #378AD1",
"+	c #626A8E",
"@	c #8088B4",
"#	c #3773AD",
"$	c #455075",
"%	c #373C55",
"&	c #BABAD7",
"*	c #9A9ABC",
"................................................................................................................................",
"................................................................................................................................",
"................................................................................................................................",
"................................................................................................................................",
"................................................................................................................................",
"................................................................................................................................",
"................................................................................................................................",
"................................................................................................................................",
"................................................................................................................................",
"................................................................................................................................",
"................................................................................................................................",
"................................................................................................................................",
"................................................................................................................................",
"................................................................................................................................",
"................................................................................................................................",
"................................................................................................................................",
"................................................................................................................................",
"................................................................................................................................",
"................................................................................................................................",
"................................................................................................................................",
"................................................................................................................................",
"................................................................................................................................",
"................................................................................................................................",
"................................................................................................................................",
"................................................................................................................................",
"................................................................................................................................",
"................................................................................................................................",
"................................................................................................................................",
"................................................................................................................................",
"................................................................................................................................",
"................................................................................................................................",
"................................................................................................................................",
"................................................................................................................................",
"................................................................................................................................",
"................................................................................................................................",
"................................................................................................................................",
"................................................................................................................................",
"................................................................................................................................",
"................................................................................................................................",
"................................................................................................................................",
"................................................................................................................................",
"................................................................................................................................",
"................................................................................................................................",
"..................................................................++@@+.........................................................",
"...................................................................++@@@+.......................................................",
"....................................................................+++++@@@+...................................................",
"..+@@................................................................++++++@@@.....++++.........................................",
"...+@@@@.............................................................++++++++@+....++++++.......................................",
"...++++@@+...........................................................+++++++++@@+...+++++++.....................................",
"...++++++@@..........................................................++++++++++@@++++@@@@@@@@@@@@@@@@+..........................",
".....+++++@@@+...................................................++@@+++++++++++++@@@@@@@@@@@@@@@@@@@@@@@@@+....................",
"......+++++@@@............................................+++@@@@@@++++++++++++++++@@@@@@@@@@@@@@@@@@@@@@@@@@++.................",
"......++++++@@+......................................++@@@@@@@@@@@+++++++++++++@@@@@@@@@@@@@@@@@@@@@@@@@@@@@@@@@+.............+.",
".......++++++@@+..............................++++@@@@@@@@@@@@@@@@@@@@@@@@@@@@@@@@@@@@@@@@@@@@@@@@@@@@@@@@@@@@@@@@+.............",
"........++++++@@+.......................+++@@@@@@@@@@@@@@@@@@@@@@@@@@@@@@@@@@@@@@@@@@@@@@@@@@@@@@@@@@@@@@@@@@@@@@@@@+...........",
"........++++++@@@..................++@@@@@@@@@@@@@@@@@@@@@@@@@@@@@@@@@@@@@@@@@@@@@@@@@@@@@@@@@@@@@@@@@@@@@@@@@@@@@@@@@..........",
".........+++++++@@+.....++@@@@@@@@@@@@@@@@@@@@@@@@@@@@@@@@@@@@@@@@@@@@@@@@@@@@@@@@@@@@@@@@@@@@@@@@@@@@@@@@@@@@@@@@@@@@@+........",
".........+++++++@@@++++@@@@@@@@@@@@@@@@@@@@@@@@@@@@@@@@@@@@@@@@@@@@@@@@@@@@@@@@@@@@@@@@@@@@@@@@@@@@@@@@@@@@@@@@@@@@@@@@@+.......",
".........++++++++@@@@@@@@@@@@@@@@@@@@@@@@@@@@@@@@@@@@@@@@@@@@@@@@@@@@@@@@@@@@@@@@@@@@@@@@@@@@@@@@@@@@@@@@@@@@@@@@@@@@@@+++......",
"..###....+++++++++@@@@@@@@@@@@@@@@@@@@@@@@@@@@@@@@@@@@@@@@@@@@@@@@@@@@@@@@@@@@@@@@@@@@@@@@@@@@@@@@@@@@@@@@@@@@@@@@@@@@++++......",
"...#####..++++++@@++@@@@@@@@@@@@@@@@@@@@@@@@@@@@@@@@@@@@@@@@@@@@@@@@@@@@@@@@@@@@@@@@@@@@@@@@@@@@@@@@@@@@@@@@@@@@@@@@@@++++......",
"...########++++++++@@@@@@@@@@@@@@@@@@@@@@@@@@@@@@@@@@@@@@@@@@@@@@@@@@@@@@@@@@@@@@@@@@@@@@@@@@@@@@@@@@@@++++@@@@@@+++$+++........",
"....######+++++++++++++++@@@@@@@@@@@@@@@@@@@@@@@@@@@@@@@@@@@@@@@@@@@@@@@@@@@@@@@@@@@@@@@@@@@@@@@@@@+@+++%&++++++++++++..........",
".....#####++++++++++++++++++@@@@@@@@@@@@@@@@@@@@@@@@@@@@@@@@@@@@@@@@@@@@@@@@@@@@@@@@@@@@@@@@+@$@$+@$++@@%%++++++++++**..........",
"......####+++++++++++++++++++++++++++++++++++@@@@@@@@@@@@@@@@@@@@@@@@@@@@@@@@@@@@@@@@@@@@++++@$@$++$+++@@++++++++***............",
"......####++++++++++++++++++++++++++++++++@+++++++++@@@@@@@@@@@@@@@@@@@@@@@@@@@@@@@@++++++++++$+$++@$+++++**++*****...........#.",
".......##++++++++++.......+++++++++++++++@@@@+++++++++++++++++++++++++++++++++++++++++++++++++@+@$++$++++**&&&&**##.............",
"........#@++++++++.................####+@@@@@++++++++++++++++++++++++++++++++++++++++++@@@@@@@@$++$+********##########..........",
".........++++++++#............#########+@@@@+####***++++++++++++++++++++++++++++++++++@@@@@@@@@**********##############.........",
"........++++++++###.....##############+@@@+############**+++++++++++++++++++++++++++++@@@@@@@@@******###################........",
".......+@++++++#######################+++###################*****+++++++************++@@@@@@@@+****######################.......",
".......+++++++###################################################*******************++@@@@@@@+############################......",
".....+@+++++########################################################################+@@@@@@@+#############################......",
"....+++++++#########################################################################+@@@@@@+#############################.......",
"...++++++..#########################################################################@@@@@@+#############################........",
"..........##########################################################################@@@@@+############################..........",
"..........#########################################################################+@@@@+#############################..........",
"..........#########################################################################+@+++############################............",
".........##########.......#######################################################################################...............",
".........#########..............################################################################################................",
".........#########.....................#####################################################################....................",
".........########......................######....########################################################.......................",
"........########......................#####............##############################################...........................",
".......#######...................................................#############################..................................",
"......########......................................................................##########..................................",
".....#######........................................................................#########...................................",
"....#######.........................................................................########....................................",
"...######...........................................................................#######.....................................",
"....................................................................................######......................................",
"...................................................................................#####........................................",
"...................................................................................##...........................................",
"................................................................................................................................",
"................................................................................................................................",
"................................................................................................................................",
"................................................................................................................................",
"................................................................................................................................",
"................................................................................................................................",
"................................................................................................................................",
"................................................................................................................................",
"................................................................................................................................",
"................................................................................................................................",
"................................................................................................................................",
"................................................................................................................................",
"................................................................................................................................",
"................................................................................................................................",
"................................................................................................................................",
"................................................................................................................................",
"................................................................................................................................",
"................................................................................................................................",
"................................................................................................................................",
"................................................................................................................................",
"................................................................................................................................",
"................................................................................................................................",
"................................................................................................................................",
"................................................................................................................................",
"................................................................................................................................",
"................................................................................................................................",
"................................................................................................................................",
"................................................................................................................................",
"................................................................................................................................",
"................................................................................................................................",
"................................................................................................................................",
"................................................................................................................................",
"................................................................................................................................",
"................................................................................................................................",
"................................................................................................................................",
"................................................................................................................................",
"................................................................................................................................"};
