/* XPM */
static char * shark_u_4_128_xpm[] = {
"128 128 6 1",
" 	c None",
".	c #378AD1",
"+	c #626A8E",
"@	c #8088B4",
"#	c #455075",
"$	c #3773AD",
"................................................................................................................................",
"................................................................................................................................",
"................................................................................................................................",
"................................................................................................................................",
"................................................................................................................................",
"................................................................................................................................",
"..............................................................+++++++...........................................................",
".............................................................+@@@@@@@+..........................................................",
".............................................................@@@@@@@@@+.........................................................",
"............................................................+@@@@@@@@@@+........................................................",
"..........................................................+@@@@@@@@@@@@@+.......................................................",
"..........................................................@@@@@@@@@@@@@@@.......................................................",
".........................................................+@@@@@@@@@@@@@@@+......................................................",
".........................................................@@@@@@@@@@@@@@@@@......................................................",
"........................................................+@@@@@@@@@@@@@@@@@+.....................................................",
"........................................................+@@@@@@@@@@@@@@@@@+.....................................................",
"........................................................@@@@@@@@@@@@@@@@@@@+....................................................",
"........................................................@@@@@@@@@@@@@@@@@@@+....................................................",
"........................................................@@@@@@@@@@@@@@@@@@@@....................................................",
".......................................................+@@@@@@@@@@@@@@@@@@@@....................................................",
".......................................................+@@@@@@@@@@@@@@@@@@@@....................................................",
".......................................................+@@@@@@@@@@@@@@@@@@@@+...................................................",
".......................................................@@@@@@@@@@@@@@@@@@@@@+...................................................",
"......................................................+@@@@@@@@@@@@@@@@@@@@@@...................................................",
"......................................................+@@@@@@@@@@@@@@@@@@@@@@...................................................",
"......................................................+@@@@@@@@@@@@@@@@@@@@@@+..................................................",
"......................................................+@@@@@@@@@@+@@@@@@@@@@@+..................................................",
"......................................................+#@@@@@@@@@+@@@@@@@@@@#+..................................................",
"......................................................#+@@@@@@@@@+@@@@@@@@@@+#..................................................",
"......................................................++@@@@@@@@++@+@@@@@@@@++..................................................",
"......................................................+@@@@@@@@@++@+@@@@@@@+@+..................................................",
"......................................................+#@@@@@@@@++@+@@@@@@@@#+..................................................",
"......................................................#+@@@@@@@+#+@#+@@@@@@@+#..................................................",
"......................................................+@@@@@@@@+#+@#+@@@@@@+@+..................................................",
"....................................................@@+#@@@@@@@+#+@#+@@@@@@@#+..................................................",
"..................................................@@@@#+@@@@@@@+#+@#+@@@@@@@+#@@................................................",
".................................................@@@@@++@@@@@@@+#+@#+@@@@@@@++@@@@..............................................",
"................................................@@@@@@+@@@@@@@@+#+@#+@@@@@@@@+@@@@@.............................................",
"..............................................@@@@@@@@+@@@@@@@@+#+@#+@@@@@@@@+@@@@@@............................................",
"............................................@@@@@@@@@@+@@@@@@@@+#+@#+@@@@@@@@+@@@@@@@@..........................................",
"............................................@@@@@@@@@@+@@@@@@@@@#+@#@@@@@@@@@+@@@@@@@@@.........................................",
"...........................................@@@@@@@@@@@+@@@@@@@@@#+@#@@@@@@@@@+@@@@@@@@@@........................................",
"...........................................@@@@@@@@@@@+@@@@@@@@@#+@#@@@@@@@@@+@@@@@@@@@@........................................",
"..........................................@@@@@@@@@@@@+@@@@@@@@@++@+@@@@@@@@@+@@@@@@@@@@@.......................................",
".........................................@@@@@@++.$$$++@@@@@@@@@++++@@@@@@@@@+$$..++@@@@@.......................................",
".........................................@@@@++..$$$$$+@@@@@@@@@++++@@@@@@@@@$$$$$..+@@@@.......................................",
".........................................@@@+...$$$$$$+@@@@@@@@@++++@@@@@@@@+$$$$$$..++@@.......................................",
".........................................+++..$$$$$$$$+@@@@@@@@@@++@@@@@@@@@+$$$$$$$...++.......................................",
".............................................$$$$$$$$$+@@@@@@@@@@++@@@@@@@@@+$$$$$$$$...........................................",
"............................................$$$$$$$$$$+@@@@@@@@@@++@@@@@@@@@+$$$$$$$$$..........................................",
"...........................................$$$$$$$$$$$$@@@@@@@@@@@+@@@@@@@@@$$$$$$$$$$$$........................................",
"...........................................$$$$$$$$$$$$@@@@@@@@@@@+@@@@@@@@@$$$$$$$$$$$$........................................",
"..........................................$$$$$$$$$$$$$@@@@@@@@@@@+@@@@@@@@+$$$$$$$$$$$$$.......................................",
"..........................................$$$$$$$$$$$$$@@@@@@@@@@@@@@@@@@@@+$$$$$$$$$$$$$.......................................",
".........................................$$$$$$$$....$$@@@@@@@@@@@@@@@@@@@@+$$....$$$$$$$.......................................",
".........................................$$$$$$.......$@@@@@@@@@@@@@@@@@@@@+$.......$$$$$.......................................",
".........................................$$$..........$+@@@@@@@@@@@@@@@@@@@$$..........$$.......................................",
"......................................................$+@@@@@@@@@@@@@@@@@@@$$...................................................",
"......................................................$+@@@@@@@@@@@@@@@@@@@$$...................................................",
".......................................................$@@@@@@@@@@@@@@@@@@@$$...................................................",
".......................................................$@@@@@@@@@@@@@@@@@@@$....................................................",
".......................................................$@@@@@@@@@@@@@@@@@@@$....................................................",
".......................................................$@@@@@@@@@@@@@@@@@@+$....................................................",
".......................................................$@@@@@@@@@@@@@@@@@@+$....................................................",
".......................................................$@@@@@@@@@@@@@@@@@@+$....................................................",
".......................................................$@@@@@@@@@@@@@@@@@@+$....................................................",
".......................................................$+@@@@@@@@@@@@@@@@@$.....................................................",
".......................................................$+@@@@@@@@@@@@@@@@+$.....................................................",
"........................................................$@@@@@@@@@@@@@@@@+$.....................................................",
"........................................................$@@@@@@@@@@@@@@@@$$.....................................................",
"........................................................$@@@@@@@@@@@@@@@@$$.....................................................",
"........................................................$@@@@@@@@@@@@@@@@$$.....................................................",
"........................................................$$@@@@@@@@@@@@@@@$$.....................................................",
"........................................................$$@@@@@@@@@@@@@@@$$.....................................................",
"........................................................$$@@@@@@@@@@@@@@+$$.....................................................",
"........................................................$$+@@@@@@@@@@@@@+$......................................................",
"........................................................$$+@@@@@@@@@@@@@$$......................................................",
"........................................................$$$@@@@@@@@@@@@@$$......................................................",
".........................................................$$@@@@@@@@@@@@@$.......................................................",
".........................................................$$@@@@@@@@@@@@@$.......................................................",
".........................................................$@@@@@@@@@@@@@@@.......................................................",
".........................................................$@@@@@@@@@@@@@+@.......................................................",
".........................................................@@@@@@@@@@@@@@+@@......................................................",
".........................................................@@@+@@@@@@@@@@+@@......................................................",
"........................................................@@@@+@@@@@@@@@@+@@@.....................................................",
"........................................................@@@++@@@@@@@@@+$@@@.....................................................",
"........................................................@@+$$@@@@@@@@@+$+@@@....................................................",
"........................................................+..$$@@@@@@@@@$$..+@....................................................",
"...........................................................$$@@@@@@@@@$$........................................................",
"..........................................................$$$+@@@@@@@+$$$.......................................................",
"..........................................................$$$+@@@@@@@$$$$.......................................................",
".........................................................$$$$+@@@@@@@$$$$$......................................................",
".........................................................$$$$$@@@@@@+$$$$$......................................................",
"........................................................$$$$$$+@@@@@$$$$$$$.....................................................",
"........................................................$$$$$$+@@@@@$$$$$$$.....................................................",
"........................................................$$$..$$@@@@+$$$.$$$$....................................................",
"........................................................$....$$+@@@$$$....$$....................................................",
".............................................................$$+@@@$$$..........................................................",
".............................................................$$$@@@$$$..........................................................",
".............................................................$$$@@@$$$..........................................................",
".............................................................$$$+@@$$...........................................................",
"..............................................................$$+@+$$...........................................................",
"..............................................................$$+@+$............................................................",
"..............................................................$$+@+$............................................................",
"..............................................................$$+@+$............................................................",
"...............................................................$+@+$............................................................",
"...............................................................$+@+.............................................................",
"................................................................+@+.............................................................",
"................................................................+@+.............................................................",
"................................................................+@+.............................................................",
"................................................................+@+.............................................................",
"................................................................+@+.............................................................",
"................................................................$@+.............................................................",
"................................................................$@+.............................................................",
"................................................................$@$.............................................................",
"................................................................$+$.............................................................",
"................................................................$+$.............................................................",
"................................................................$$$.............................................................",
"................................................................$$$.............................................................",
"................................................................$$$.............................................................",
"................................................................$$$.............................................................",
".................................................................$$.............................................................",
".................................................................$$.............................................................",
".................................................................$..............................................................",
".................................................................$..............................................................",
".................................................................$..............................................................",
"................................................................................................................................",
"................................................................................................................................"};
