/* XPM */
static char * shark_l_2_128_xpm[] = {
"128 128 9 1",
" 	c None",
".	c #378AD1",
"+	c #8088B4",
"@	c #626A8E",
"#	c #455075",
"$	c #373C55",
"%	c #9A9ABC",
"&	c #3773AD",
"*	c #BABAD7",
"................................................................................................................................",
"................................................................................................................................",
"................................................................................................................................",
"................................................................................................................................",
"................................................................................................................................",
"................................................................................................................................",
"................................................................................................................................",
"................................................................................................................................",
"................................................................................................................................",
"................................................................................................................................",
"................................................................................................................................",
"................................................................................................................................",
"................................................................................................................................",
"................................................................................................................................",
"................................................................................................................................",
"................................................................................................................................",
"................................................................................................................................",
"................................................................................................................................",
"................................................................................................................................",
"................................................................................................................................",
"................................................................................................................................",
"................................................................................................................................",
"................................................................................................................................",
"................................................................................................................................",
"................................................................................................................................",
"................................................................................................................................",
"................................................................................................................................",
"................................................................................................................................",
"................................................................................................................................",
"................................................................................................................................",
"................................................................................................................................",
"................................................................................................................................",
"................................................................................................................................",
"................................................................................................................................",
"................................................................................................................................",
"................................................................................................................................",
"................................................................................................................................",
"................................................................................................................................",
"................................................................................................................................",
"................................................................................................................................",
"................................................................................................................................",
"................................................................................................................................",
"................................................................................................................................",
"................................................................................................................................",
"................................................................................................................................",
"................................................................................................................................",
".......................................................++@@.....................................................................",
"....................................................@+++@@......................................................................",
"..................................................@++++@@.......................................................................",
".................................................+++@@@@@.......................................................................",
"......................................@@@@@...@++@@@@@@@........................................................................",
"..................................@@@@@@@@@.@+++@@@@@@@@........................................................................",
".......................@++++++++++++++++@@@@++@@@@@@@@@@........................................................................",
"....................++++++++++++++++++++++@++@@@@@@@@@@@........................................................................",
".................@+++++++++++++++++++++++++@@@@@@@@@@@@@++@@@...................................................................",
"..............@@+++++++++++++++++++++++++++@@@@@@@@@@@@@@@+++++++@@.............................................................",
"..........@++++++++++++++++++++++++++++++++++++++++++++++++++++++++++++++++@@.........................................@@@@@@@...",
".........++++++++++++++++++++++++++++++++++++++++++++++++++++++++++++++++++++++@@...................................@+++++@@....",
".......@+++++++++++++++++++++++++++++++++++++++++++++++++++++++++++++++++++++++++++@@............................@@+++@@@@@@....",
"......@++++++++++++++++++++++++++++++++++++++++++++++++++++++++++++++++++++++++++++++++@@.......................@++++@@@@@@.....",
".....@++++++++++++++++++++++++++++++++++++++++++++++++++++++++++++++++++++++++++++++++++++@@...................@+++@@@@@........",
"...@@@++++++++++++++++++++++++++++++++++++++++++++++++++++++++++++++++++++++++++++++++++++++++++++@.........@++++@@@@@..........",
"...@@@@++++++++++++++++++++++++++++++++++++++++++++++++++++++++++++++++++++++++++++++++++++++++++++++@.....@++++@@@@@...........",
"...@@@@@+++++++++++++++++++++++++++++++++++++++++++++++++++++++++++++++++++++++++++++++++++++++++++++++@...++++@@@@@@...........",
"....@@@##@++++++++++++++++++++++++++++++++++++++++++++++++++++++++++++++++++++++++++++++++++++++++++++++@@@++@@@@@@@............",
".....@@@@@@@++++++@@@@++++++++++++++++++++++++++++++++++++++++++++++++++++++++++++++++++++++++++++++++++++++@@@@@@@.............",
".......@@@@@@@@@@@@@$@@@+++++++++++++++++++++++++++++++++++++++++++++++++++++++++++++++++++++++++++++++++++@@@@@@@..............",
".........%%%@@@@@@@@++@@@@@@#+@#@@@@@+++++++++++++++++++++++++++++++++++++++++++@@@@@@@@@@@@@@@@@@@@@@@@+++@@@@@@...............",
"..........%%%%%@@%%%@@@@@#@@#@@#@@@@@@@@@@+++++++++++++++++++++++++++++++@@@@@@@@@++@@@@@@@@@@@@@@@@@@@@@@@@@@@@@...............",
"..........&&%%****%%@@@@@#@#+@#+@@@@@@@@@@@@@@@@@@@@@@@@@@@@@@@@@@@@@@@@@@@@@@@@++++@@@@@@@@@@@@@@@@@@@@@@@@@@@@@.....&&&&&&&...",
".........&&&&&%%%%%%%%@@#@@#@@#@++++@@@@@@@@@@@@@@@@@@@@@@@@@@@@@@@@@@@@@@@@@@@+++++@@@@@@@@@@@@@@@@@@@@@@@@@@@@@...&&&&&&&&....",
".......&&&&&&&&&&%%%%%%%%%#@@#@+++++++@@@@@@@@@@@@@@@@@@@@@@@@@@@@@@@@@@@@@@@@@@+++++@..............@@@@@@@@@@@@@&&&&&&&&&&&....",
".....&&&&&&&&&&&&&&&&&&&%%%%%%%++++++++@@@@@@@@@@@@@@@@@@@@@@@@@@@@@%%%&&&&&&&&&&&@@++@&&&&.............@@@@@@@@@@&&&&&&........",
"....&&&&&&&&&&&&&&&&&&&&&&%%%%%@+++++++@@%%%%%%%%%%%%@@@@@@@@%%%%%&&&&&&&&&&&&&&&&&&@@@&&&&&&&&...........@@@@@@@@&&&&&.........",
"...&&&&&&&&&&&&&&&&&&&&&&&&&&&&&+++++++@@%%%%%%%%%%%%%%%%%%%%&&&&&&&&&&&&&&&&&&&&&&&&&&&&&&&&&&&&&&........@@@@@@@@&&&..........",
"...&&&&&&&&&&&&&&&&&&&&&&&&&&&&&+++++++@@&&&&&&&&&&&&&&&&&&&&&&&&&&&&&&&&&&&&&&&&&&&&&&&&&&&&&&&&&&&&&.....@@@@@@@@&&...........",
"...&&&&&&&&&&&&&&&&&&&&&&&&&&&&&@+++++++@&&&&&&&&&&&&&&&&&&&&&&&&&&&&&&&&&&&&&&&&&&&&&&&&&&&&&&&&&&&&&&&...&@@@@@@@@&...........",
"....&&&&&&&&&&&&&&&&&&&&&&&&&&&&@+++++++@&&&&&&&&&&&&&&&&&&&&&&&&&&&&&&&&&&&&&&&&&&&&&&&&&&&&&&&&&&&&&&&&&&&&@@@@@@@@...........",
".......&&&&&&&&&&&&&&&&&&&&&&&&&&&@+++++++&&&&&&&&&&&&&&&&&&&&&&&&&&&&&&&&&&&&&&&&&&&&&&&&&&&&&&&&&&&&&&&&&&&&&&@@@@@@..........",
"........&&&&&&&&&&&&&&&&&&&&&&&&&&&@++++++@&&&&&&&&&&&&&&&&&&&&&&&&&&&&&&&&&&&&&&&&&&&&&&&&&&&&&&&&&&&&&&&&&&&&&&@@@@@..........",
".........&&&&&&&&&&&&&&&&&&&&&&&&&&&@@++++@&&&&&&&&&&&&&&&&&&&&&&&&&&&&&&&&&&&&&&&&&&&&&&&&&&&&&&&&&&&&&&&&&&&&&&..@@@@@........",
"..........&&&&&&&&&&&&&&&&&&&&&&&&&&&&@@++@&&&&&&&&&&&&&&&&&&&&&&&&&&&&&&&&&&&&&&&&&&&&&&&&&&&&&&&&&&&&&&&&&&&&&&.....@@@@......",
"............&&&&&&&&&&&&&&&&&&&&&&&&&&&&@@@&&&&&&&&&&&&&&&&&&&&&&&&&&&&&&&&&&&&&&&&&&&&&&&&&&&&&&&&&&&&&&&&&&&&&&...............",
".................&&&&&&&&&&&&&&&&&&&&&&&&&&&&&&&&&&&&&&&&&&&&&&&&&&&&&&&&&&&&&&&&&&&&&..............&&&&&&&&&&&&&...............",
"....................&&&&&&&&&&&&&&&&&&&&&&&&&&&&&&&&&&&&&&&&&&&&&&&&&&&&&&&&....&&&&&&................&&&&&&&&&&&...............",
"........................&&&&&&&&&&&&&&&&&&&&&&&&&&&&&&&&&&&&&&&&&&&&&&&...........&&&&&.................&&&&&&&&&&..............",
"..........................&&&&&&&&&&&&&&&&&&&&&&&&&&&&&&&&&&&&&&&&..................&&&...................&&&&&&&&..............",
"................................&&&&&&&&&&&&&&&&&&&&&&&&&&&&&..............................................&&&&&&&&.............",
"................................&&&&&&&&&..................................................................&&&&&&&&.............",
"................................&&&&&&&&&....................................................................&&&&&&&&...........",
".................................&&&&&&&&&.....................................................................&&&&&&...........",
"..................................&&&&&&&&......................................................................&&&&&&..........",
"...................................&&&&&&&&......................................................................&&&&&..........",
"....................................&&&&&&&........................................................................&&&&&........",
"......................................&&&&&...........................................................................&&&&......",
"................................................................................................................................",
"................................................................................................................................",
"................................................................................................................................",
"................................................................................................................................",
"................................................................................................................................",
"................................................................................................................................",
"................................................................................................................................",
"................................................................................................................................",
"................................................................................................................................",
"................................................................................................................................",
"................................................................................................................................",
"................................................................................................................................",
"................................................................................................................................",
"................................................................................................................................",
"................................................................................................................................",
"................................................................................................................................",
"................................................................................................................................",
"................................................................................................................................",
"................................................................................................................................",
"................................................................................................................................",
"................................................................................................................................",
"................................................................................................................................",
"................................................................................................................................",
"................................................................................................................................",
"................................................................................................................................",
"................................................................................................................................",
"................................................................................................................................",
"................................................................................................................................",
"................................................................................................................................",
"................................................................................................................................",
"................................................................................................................................",
"................................................................................................................................",
"................................................................................................................................"};
