/* XPM */
static char * floor_xpm[] = {
"62 62 28 1",
" 	c None",
".	c #0000FF",
"+	c #201E5C",
"@	c #211F43",
"#	c #28263A",
"$	c #292638",
"%	c #282638",
"&	c #292738",
"*	c #26243D",
"=	c #211F47",
"-	c #211F46",
";	c #222143",
">	c #272536",
",	c #292739",
"'	c #222142",
")	c #26243E",
"!	c #252438",
"~	c #211F45",
"{	c #222032",
"]	c #222031",
"^	c #211F33",
"/	c #211F34",
"(	c #222033",
"_	c #222034",
":	c #212043",
"<	c #232144",
"[	c #292737",
"}	c #232143",
".+@#$%%%%%%%%%%%%%&*=-;>,%%%%%%%%%%%%%,>'-=)&%%%%%%%%%%%%$%!-~",
"+{]^///////////////({{{/////////////////{{{(///////////////_{]",
":{___________________________________________________________(",
"={___________________________________________________________(",
"#^___________________________________________________________(",
"$/___________________________________________________________(",
"%/___________________________________________________________(",
"%/___________________________________________________________(",
"%/___________________________________________________________(",
"%/___________________________________________________________(",
"%/___________________________________________________________(",
"%/___________________________________________________________(",
"%/___________________________________________________________(",
"%/___________________________________________________________(",
"%/___________________________________________________________(",
"%/___________________________________________________________(",
"%/___________________________________________________________(",
"%/___________________________________________________________(",
"&/___________________________________________________________(",
"*(___________________________________________________________(",
"={___________________________________________________________(",
"-{___________________________________________________________(",
"-{___________________________________________________________(",
"<{___________________________________________________________(",
"[/___________________________________________________________(",
"%/___________________________________________________________(",
"%/___________________________________________________________(",
"%/___________________________________________________________(",
"%/___________________________________________________________(",
"%/___________________________________________________________(",
"%/___________________________________________________________(",
"%/___________________________________________________________(",
"%/___________________________________________________________(",
"%/___________________________________________________________(",
"%/___________________________________________________________(",
"%/___________________________________________________________(",
"%/___________________________________________________________(",
"%/___________________________________________________________(",
"[/___________________________________________________________(",
"}{___________________________________________________________(",
"-{___________________________________________________________(",
"-{___________________________________________________________(",
"-{___________________________________________________________(",
"={___________________________________________________________(",
")(___________________________________________________________(",
"&/___________________________________________________________(",
"%/___________________________________________________________(",
"%/___________________________________________________________(",
"%/___________________________________________________________(",
"%/___________________________________________________________(",
"%/___________________________________________________________(",
"%/___________________________________________________________(",
"%/___________________________________________________________(",
"%/___________________________________________________________(",
"%/___________________________________________________________(",
"%/___________________________________________________________(",
"%/___________________________________________________________(",
"$/___________________________________________________________(",
"#^___________________________________________________________(",
"-{___________________________________________________________(",
"-{___________________________________________________________(",
"~]((((((((((((((((((((((((((((((((((((((((((((((((((((((((((({"};
