/* XPM */
static char * grass_flower_xpm[] = {
"128 128 15 1",
" 	c None",
".	c #72751B",
"+	c #FFFFFF",
"@	c #7F8226",
"#	c #787B21",
"$	c #656C17",
"%	c #B3B0A9",
"&	c #A2814F",
"*	c #636917",
"=	c #9CA8AD",
"-	c #BD9842",
";	c #A2783C",
">	c #C6A740",
",	c #7F8124",
"'	c #686F16",
"...............................................................................................................................+",
"...............................................................................................................................+",
"...............................................................................................................................+",
"...............................................................................................................................+",
"...............................................................................................................................+",
"........................................................................................@##....................................+",
".........................................................................................###...................................+",
"........................................@.................................................$$...................................+",
"........................................##.....................................................................................+",
"....................................@@#.$#................................@....................................................+",
".....................................@##$$.@@#.....................#@@...@.....................................................+",
"..................................#@.$##.$##@.......................@##.@@.....................................................+",
"...................................@##$#.###........................$##.%%.....................................................+",
"...................................$##.$$##$.........................$#%&&%....................................................+",
"...............%%...................$#..$$$...........................$*%%*....................................................+",
"..............%&&%...................$.##...............................**..................................##.................+",
"..............*%%*.....................@$..................................................................@#..................+",
"...............**......................$..................................................................##$..................+",
"........................................................#@@...........................................@@#.##$..................+",
".......................................................##@.............................................@##$#$..................+",
".......................................................##$..........................%%.................$##$$...................+",
"..................................................#@..==$..........................%&&%.%%..............$$.................@...+",
"..................................................$@#=&&=@.........................*%%*%&%..........................#@@...@....+",
"...................................................##*==*$........................%%**.%%*...........................@==.@@....+",
"...................................................$#$**$.........................&%...**............................=&&=##....+",
"....................................................$$##$.........................**.................................*==*%%....+",
"......................................................#$..............................................................**.&%....+",
".........................................................................................................................**....+",
"...............................................................................................................................+",
"...............................................................................................................................+",
"...............................................................................................................................+",
"...............................................................................................................................+",
"...............................................................................................................................+",
"...............................................................................................................................+",
"...............................................................................................................................+",
"...............................................................................................................................+",
"...............................................................................................................................+",
"...............................................................................................................................+",
"......................................................................................@@.......................................+",
".......................................................................................@#....@.................................+",
".........................................................@.............................###.#@..................................+",
"....................................................@@#..##.........................@##$####$..................................+",
".....................................................@##.$#..@.......................##--$##$..................................+",
".....................................................$##==.##$.......................$-;;-#$...................................+",
"...........@........................................@#$#&=.##$........................*--*.>>..................................+",
"......@@#..##.......................................$%%$**.$$.......................>>.**..;>...........@#.....................+",
".......@##.$#..==...................................%&&%$%%........................>;;>....**......@#..#@$.....................+",
".......$###$.##=&=..................................*%%*%&%........................*>>*............$##.##......................+",
"......@#$##.%%#*==...................................**.%%*.........................**..............$###$......................+",
"......$##$#%&&%.**......................................**..........................................$##$.......................+",
".......$#$$*%%*.%%...................................................................................$#........................+",
"............**.%&&%............................................................................................................+",
"........==...%%*%%*............................................................................................................+",
"........&=..%&%.**.............................................................................................................+",
"........**..%%*..........................................................@@.............................................#@@....+",
"............**.....................................................#...##@.............................................##@.....+",
"....................................................................@@.##$.............................................##$.....+",
".....................................@@.............................@##$$..............................................$$......+",
"......................................@##...@@......................$##........................................................+",
"......................................$##..#@........................$.........................................................+",
".......................................$$.###..................................................................................+",
"..........................................##$..................................................................................+",
"..........................................$$...................................................................................+",
"...............................................................................................................................+",
"...............................................................................................................................+",
"...............................................................................................................................+",
"...............................................................................................................................+",
".............................................#@................................................................................+",
"..............................................@@...............................................................................+",
"..............................................###..............................................................................+",
"..............................................$##$##@@..............................................................#@....@@...+",
"...............................................==###.................................................................@@..#@....+",
"..............................................=&=##$.................................................................##.##$....+",
"...................#@....##...................==*#$..................................................................>>.##$....+",
"....................@@..##....................**....................................................................>;;>$$.....+",
"....................$##.##..........................................................................................*>>*.......+",
"....................$##.$$.......................................................,...................................**........+",
".....................$$....................................@....................##..,##........................................+",
"..........................................................@..................,..#'.#,,.........................................+",
".........................................................##...................,#'.##,'.........................................+",
".........................................................##$.................'##..##'#,........................................+",
".........................................................$$#@.................'#..%%##'........................................+",
"...........................................................##..................'.%&&%'.........................................+",
"...........................................................$$....................*%%*..........................................+",
"........--.....................................................................%&.**...........................................+",
".......-;;-.>>........................@@.....@.................................%%..............................................+",
".......*--*>;>.........................@##.#@..................................**..............................................+",
"........**.>>*......................#@@$#$##$..................................................................................+",
"...........**........................@##==##$..%%..............................................................................+",
".....................................$#=&&=$...&%....................#,,.......................................................+",
"......................................$*==*%%..**.....................,##......................................................+",
"........................................**%&%.........................'##......................................................+",
"..........................................%%*..........................''......................................................+",
"..........................................**...................................................................................+",
"...............................................................................................................................+",
"...............................................................................................................................+",
"...............................................................................................................................+",
"...............................................................................................................................+",
"............................................................................................#..................................+",
"......,....................................................................................,,..................................+",
".......,...........................##.....................................................#,'..................................+",
".......##..........................',,....................................................##...................................+",
"......'##...........................,##...#...............................................''...................................+",
".....,#''...........................'##.,#.....................................................................................+",
".....##.............................'###>>............,........................................................................+",
".....''..............................''>;;>..........##..,,#...................................................................+",
".......................................*>>*--.....#..#'.##,....................................................................+",
"........................................**.;-......,#'..##'...........................................................,........+",
"...........................................**......##>>##'#,.........................................................##..#,,...+",
"..........................#.........................>;;>'##'......................................................,..#'.##,....+",
"..........................##........................*>>*'#'.......................................................'##.'###'....+",
".........................%%#.........................**..--............,,....##...................................'##==##'#,...+",
"........................%&%'..................,,#.......-;;-............,##.,,.....................................'=&&='##'...+",
"........................%%*....................,##......*--*.........#,,'#'##'......................................*==*'#'....+",
"....,,.....,............**.....................'##.....>>**...........,##''#==...............................,,#.....**==......+",
".....,##.#,.....................................''....>;>*............'#%%.#&=................................,##%%....&=......+",
"..#,,'#'##'...........................................>>*..............%&&%.**................................'#%&&%...**......+",
"...,#%%'##'.,,...,....................................**...............*%%*....................................'*%%*...........+",
"...'%&&%#'...,,.,.......................................................**.......................................**............+",
"....*%%*.....##'#..................,,....##....................................................................................+",
".....**.....==#''...................,#.>>#...................,,................................................................+",
"...........=&&=.....................'##>;#..............#..##,.................................................................+",
"...........*==*.==..................'##**'..............,,'##'.................................................................+",
"............**..&=...................''.................,##''..................................................................+",
"................**......................................'##....................................................................+",
"...............................................................................................................................+",
"...............................................................................................................................+",
"...............................................................................................................................+"};
