/* XPM */
static char * grass_xpm[] = {
"128 128 7 1",
" 	c None",
".	c #72751B",
"+	c #7F8226",
"@	c #787B21",
"#	c #656C17",
"$	c #7F8124",
"%	c #686F16",
"................................................................................................................................",
"................................................................................................................................",
"................................................................................................................................",
"................................................................................................................................",
"................................................................................................................................",
"........................................................................................+@@.....................................",
".........................................................................................@@@....................................",
"........................................+.................................................##....................................",
"........................................@@......................................................................................",
"....................................++@.#@......................................................................................",
".....................................+@@##.++@..................................................................................",
"..................................@+.#@@.#@@+...................................................................................",
"...................................+@@#@.@@@....................................................................................",
"...................................#@@.##@@#...............................+....................................................",
"....................................#@..###.........................@++...+.....................................................",
".....................................#.@@............................+@@.++.................................@@..................",
".......................................+#............................#@@.@@................................+@...................",
".......................................#..............................#@#@#...............................@@#...................",
".......................................................................#.#............................++@.@@#...................",
".......................................................................................................+@@#@#...................",
".......................................................................................................#@@##....................",
"........................................................................................................##......................",
"................................................................................................................................",
"................................................................................................................................",
"...........................................................................................................................+....",
"....................................................................................................................@++...+.....",
".....................................................................................................................+@@.++.....",
".....................................................................................................................#@@.@@.....",
"......................................................................................................................#@.@#.....",
".......................................................................................................................#.#......",
"................................................................................................................................",
"................................................................................................................................",
"................................................................................................................................",
"................................................................................................................................",
"................................................................................................................................",
"................................................................................................................................",
"................................................................................................................................",
"................................................................................................................................",
"......................................................................................++........................................",
".......................................................................................+@....+..................................",
".........................................................+.............................@@@.@+...................................",
"....................................................++@..@@.........................+@@#@@@@#...................................",
".....................................................+@@.#@..+.......................@@@##@@#...................................",
".....................................................#@@@#.@@#.......................#@@..@#....................................",
"...........+........................................+@#@@..@@#........................#@........................................",
"......++@..@@.......................................#@@#@..##...........................................+@......................",
".......+@@.#@..+.....................................#@##..........................................+@..@+#......................",
".......#@@@#.@@#...................................................................................#@@.@@.......................",
"......+@#@@..@@#....................................................................................#@@@#.......................",
"......#@@#@..##.....................................................................................#@@#........................",
".......#@##..........................................................................................#@.........................",
"................................................................................................................................",
"................................................................................................................................",
"................................................................................................................................",
"........................................................................................................................@++.....",
".......................................................................................................................@@+......",
".......................................................................................................................@@#......",
".....................................++................................................................................##.......",
"......................................+@@...++..................................................................................",
"......................................#@@..@+...................................................................................",
".......................................##.@@@...................................................................................",
"..........................................@@#...................................................................................",
"..........................................##....................................................................................",
"................................................................................................................................",
"................................................................................................................................",
"................................................................................................................................",
"................................................................................................................................",
".............................................@+.................................................................................",
"..............................................++................................................................................",
"..............................................@@@...............................................................................",
"..............................................#@@#@@++..............................................................@+....++....",
"...............................................##@@@.................................................................++..@+.....",
".................................................@@#.................................................................@@.@@#.....",
"...................@+....@@......................@#..................................................................##.@@#.....",
"....................++..@@..............................................................................................##......",
"....................#@@.@@......................................................................................................",
"....................#@@.##.......................................................$..............................................",
".....................##....................................+....................@@..$@@.........................................",
"..........................................................+..................$..@%.@$$..........................................",
".........................................................@@...................$@%.@@$%..........................................",
".........................................................@@#.................%@@..@@%@$.........................................",
".........................................................##@+.................%@..@%@@%.........................................",
"...........................................................@@..................%..%%@%..........................................",
"...........................................................##...................................................................",
"................................................................................................................................",
"......................................++.....+..................................................................................",
".......................................+@@.@+...................................................................................",
"....................................@++#@#@@#...................................................................................",
".....................................+@@##@@#...................................................................................",
".....................................#@@..@#.........................@$$........................................................",
"......................................#@..............................$@@.......................................................",
"......................................................................%@@.......................................................",
".......................................................................%%.......................................................",
"................................................................................................................................",
"................................................................................................................................",
"................................................................................................................................",
"................................................................................................................................",
"................................................................................................................................",
"................................................................................................................................",
"......$.........................................................................................................................",
".......$...........................@@...........................................................................................",
".......@@..........................%$$.....................................................@....................................",
"......%@@...........................$@@...@...............................................$$....................................",
".....$@%%...........................%@@.$@...............................................@$%....................................",
".....@@.............................%@@@$$............$..................................@@.....................................",
".....%%..............................%%@@%...........@@..$$@.............................%%.....................................",
".......................................%%.........@..@%.@@$.....................................................................",
"...................................................$@%..@@%...........................................................$.........",
"...................................................@@..@@%@$.........................................................@@..@$$....",
"....................................................%..@%@@%......................................................$..@%.@@$.....",
".......................................................%%@%.......................................................%@@.%@@@%.....",
"..................................................................................................................%@@..@@%@$....",
"..............................................$$@..................................................................%%..@%@@%....",
"...............................................$@@.....................................................................%%@%.....",
".......$$.....$.............@..................%@@....................$$....@@...............................$$@................",
"........$@@.@$..............@@..................%%.....................$@@.$$.................................$@@...............",
".....@$$%@%@@%..............%@......................................@$$%@%@@%.................................%@@...............",
"......$@@%%@@%...............%.......................................$@@%%@@%..................................%%...............",
"......%@@..@%........................................................%@@..@%....................................................",
".......%@..........................$$....@@...........................%@........................................................",
".................$$...$.............$@..@@...................$$.................................................................",
"..................$$.$..............%@@.@@..............@..@@$..................................................................",
"..................@@%@..............%@@.%%..............$$%@@%..................................................................",
"..................%@%%...............%%.................$@@%%...................................................................",
"...................%....................................%@@.....................................................................",
"................................................................................................................................",
"................................................................................................................................",
"................................................................................................................................"};
