/* XPM */
static char *_e1bd192b9474a0c90ba05a87acbe74dl9rB68XMa40cfOiM[] = {
/* columns rows colors chars-per-pixel */
"128 128 9 1 ",
"  c #B57A40",
". c #C0953F",
"X c #CAAA41",
"o c #D4C044",
"O c #747183",
"+ c #386AC3",
"@ c #378AD1",
"# c #44ADE0",
"$ c #55D1EC",
/* pixels */
"@@@@@@@@@@@@@@@@@@@@@@@@@@@@@@@@@@@@@@@@@@@@@@@@@@@@@@@@@@@@@@@@@@@@@@@@@@@@@@@@@@@@@@@@@@@@@@@@@@@@@@@@@@@@@@@@@@@@@@@@@@@@@@@@",
"@@@@@@@@@@@@@@@@@@@@@@@@@@@@@@@@@@@@@@@@@@@@@@@@@@@@@@@@@@@@@@@@@@@@@@@@@@@@@@@@@@@@@@@@@@@@@@@@@@@@@@@@@@@@@@@@@@@@@@@@@@@@@@@@",
"@@@@@@@@@@@@@@@@@@@@@@@@@@@@@@@@@@@@@@@@@@@@@@@@@@@@@@@@@@@@@@@@@@@@@@@@@@@@@@@@@@@@@@@@@@@@@@@@@@@@@@@@@@@@@@@@@@@@@@@@@@@@@@@@",
"@@@@@@@@@@@@@@@@@@@@@@@@@@@@@@@@@@@@@@@@@@@@@@@@@@@@@@@@@@@@@@@@@@@@@@@@@@@@@@@@@@@@@@@@@@@@@@@@@@@@@@@@@@@@@@@@@@@@@@@@@@@@@@@@",
"@@@@@@@@@@@@@@@@@@@@@@@@@@@@@@@@@@@@@@@@@@@@@@@@@@@@@@@@@@@@@@@@@@@@@@@@@@@@@@@@@@@@@@@@@@@@@@@@@@@@@@@@@@@@@@@@@@@@@@@@@@@@@@@@",
"@@@@@@@@@@@@@@@@@@@@@@@@@@@@@@@@@@@@@@@@@@@@@@@@@@@@@@@@@@@@@@@@@@@@@@@@@@@@@@@@@@@@@@@@@@@@@@@@@@@@@@@@@@@@@@@@@@@@@@@@@@@@@@@@",
"@@@@@@@@@@@@@@@@@@@@@@@@@@@@@@@@@@@@@@@@@@@@@@@@@@@@@@@@@@@@@@@@@@@@@@@@@@@@@@@@@@@@@@@@@@@@@@@@@@@@@@@@@@@@@@@@@@@@@@@@@@@@@@@@",
"@@@@@@@@@@@@@@@@@@@@@@@@@@@@@@@@@@@@@@@@@@@@@@@@@@@@@@@@@@@@@@@@@@@@@@@@@@@@@@@@@@@@@@@@@@@@@@@@@@@@@@@@@@@@@@@@@@@@@@@@@@@@@@@@",
"@@@@@@@@@@@@@@@@@@@@@@@@@@@@@@@@@@@@@@@@@@@@@@@@@@@@@@@@@@@@@@@@@@@@@@@@@@@@@@@@@@@@@@@@@@@@@@@@@@@@@@@@@@@@@@@@@@@@@@@@@@@@@@@@",
"@@@@@@@@@@@@@@@@@@@@@@@@@@@@@@@@@@@@@@@@@@@@@@@@@@@@@@@@@@@@@@@@@@@@@@@@@@@@@@@@@@@@@@@@@@@@@@@@@@@@@@@@@@@@@@@@@@@@@@@@@@@@@@@@",
"@@@@@@@@@@@@@@@@@@@@@@@@@@@@@@@@@@@@@@@@@@@@@@@@@@@@@@@@@@@@@@@@@@@@@@@@@@@@@@@@@@@@@@@@@@@@@@@@@@@@@@@@@@@@@@@@@@@@@@@@@@@@@@@@",
"@@@@@@@@@@@@@@@@@@@@@@@@@@@@@@@@@@@@@@@@@@@@@@@@@@@@@@@@@@@@@@@@@@@@@@@@@@@@@@@@@@@@@@@@@@@@@@@@@@@@@@@@@@@@@@@@@@@@@@@@@@@@@@@@",
"@@@@@@@@@@@@@@@@@@@@@@@@@@@@@@@@@@@@@@@@@@@@@@@@@@@@@@@@@@@@@@@@@@@@@@@@@@@@@@@@@@@@@@@@@@@@@@@@@@@@@@@@@@@@@@@@@@@@@@@@@@@@@@@@",
"@@@@@@@@@@@@@@@@@@@@@@@@@@@@@@@@@@@@@@@@@@@@@@@@@@@@@@@@@@@@@@@@@@@@@@@@@@@@@@@@@@@@@@@@@@@@@@@@@@@@@@@@@@@@@@@@@@@@@@@@@@@@@@@@",
"@@@@@@@@@@@@@@@@@@@@@@@@@@@@@@@@@@@@@@@@@@@@@@@@@@@@@@@@@@@@@@@@@@@@@@@@@@@@@@@@@@@@@@@@@@@@@@@@@@@@@@@@@@@@@@@@@@@@@@@@@@@@@@@@",
"@@@@@@@@@@@@@@@@@@@@@@@@@@@@@@@@@@@@@@@@@@@@@@@@@@@@@@@@@@@@@@@@@@@@@@@@@@@@@@@@@@@@@@@@@@@@@@@@@@@@@@@@@@@@@@@@@@@@@@@@@@@@@@@@",
"@@@@@@@@@@@@@@@@......oooooo....@@@@@@@@oooooo....oooooooooooooooo..@@@@@@@@@@....oooooo..oooooooooooooooo....oooooo@@@@@@@@@@@@",
"@@@@@@@@@@@@@@@@......oooooo....@@@@@@@@oooooo....oooooooooooooooo..@@@@@@@@@@....oooooo..oooooooooooooooo....oooooo@@@@@@@@@@@@",
"@@@@@@@@@@##++++oooooooooooooooooooooooooooooooooooooooooooooooooooooooooooooooooooooooooooooooooooooooooooooooooooooo@@@@@@@@@@",
"@@@@@@@@@@##++++oooooooooooooooooooooooooooooooooooooooooooooooooooooooooooooooooooooooooooooooooooooooooooooooooooooo@@@@@@@@@@",
"@@@@@@@@@@##++++oooooooooooooooooooooooooooooooooooooooooooooooooooooooooooooooooooooooooooooooooooooooooooooooooooooo@@@@@@@@@@",
"@@@@@@@@@@##++++oooooooooooooooooooooooooooooooooooooooooooooooooooooooooooooooooooooooooooooooooooooooooooooooooooooo@@@@@@@@@@",
"@@@@@@$$$$++....oooooooooooooooooooooooooooooooooooooooooooooooooooooooooooooooooooooooooooooooooooooooooooooooooooo..####@@@@@@",
"@@@@@@$$$$++....oooooooooooooooooooooooooooooooooooooooooooooooooooooooooooooooooooooooooooooooooooooooooooooooooooo..####@@@@@@",
"@@@@++####oooooooooooooooooooooooooooooooooooooooooooooooooooooooooooooooooooooooooooooooooooooooooooooooooooooooooo..++++$$@@@@",
"@@@@++####oooooooooooooooooooooooooooooooooooooooooooooooooooooooooooooooooooooooooooooooooooooooooooooooooooooooooo..++++$$@@@@",
"@@@@++####oooooooooooooooooooooooooooooooooooooooooooooooooooooooooooooooooooooooooooooooooooooooooooooooooooooooooo..++++$$@@@@",
"@@@@++####oooooooooooooooooooooooooooooooooooooooooooooooooooooooooooooooooooooooooooooooooooooooooooooooooooooooooo..++++$$@@@@",
"@@@@++++++..oooooooooooooooooooooooooooooooooooooooooooooooooooooooooooooooooooooooooooooooooooooooooooooooooooooooooo++++##@@@@",
"@@@@++++++..oooooooooooooooooooooooooooooooooooooooooooooooooooooooooooooooooooooooooooooooooooooooooooooooooooooooooo++++##@@@@",
"@@@@++++++..oooooooooooooooooooooooooooooooooooooooooooooooooooooooooooooooooooooooooooooooooooooooooooooooooooooooooo++++##@@@@",
"@@@@++++++..oooooooooooooooooooooooooooooooooooooooooooooooooooooooooooooooooooooooooooooooooooooooooooooooooooooooooo++++##@@@@",
"@@@@++++++..oooooooooooooooooooooooooooooooooooooooooooooooooooooooooooooooooooooooooooooooooooooooooooooooooooooooo..++++++@@@@",
"@@@@++++++..oooooooooooooooooooooooooooooooooooooooooooooooooooooooooooooooooooooooooooooooooooooooooooooooooooooooo..++++++@@@@",
"@@@@@@++++OOoooooooooooooooooooooooooooooooooooooooooooooooooooooooooooooooooooooooooooooooooooooooooooooooooooooooo..++++@@@@@@",
"@@@@@@++++OOoooooooooooooooooooooooooooooooooooooooooooooooooooooooooooooooooooooooooooooooooooooooooooooooooooooooo..++++@@@@@@",
"@@@@@@++++OOoooooooooooooooooooooooooooooooooooooooooooooooooooooooooooooooooooooooooooooooooooooooooooooooooooooooo..++++@@@@@@",
"@@@@@@++++OOoooooooooooooooooooooooooooooooooooooooooooooooooooooooooooooooooooooooooooooooooooooooooooooooooooooooo..++++@@@@@@",
"@@@@@@++++oooooooooooooooooooooooooooooooooooooooooooooooooooooooooooooooooooooooooooooooooooooooooooooooooooooooooo..++++@@@@@@",
"@@@@@@++++oooooooooooooooooooooooooooooooooooooooooooooooooooooooooooooooooooooooooooooooooooooooooooooooooooooooooo..++++@@@@@@",
"@@@@++++++  ooooooooooooooooooooooooooooooooooooooooooooooooooooooooooooooooooooooooooooooooooooooooooooooooooooooooooOOOO@@@@@@",
"@@@@++++++  ooooooooooooooooooooooooooooooooooooooooooooooooooooooooooooooooooooooooooooooooooooooooooooooooooooooooooOOOO@@@@@@",
"@@@@++++++  ooooooooooooooooooooooooooooooooooooooooooooooooooooooooooooooooooooooooooooooooooooooooooooooooooooooooooOOOO@@@@@@",
"@@@@++++++  ooooooooooooooooooooooooooooooooooooooooooooooooooooooooooooooooooooooooooooooooooooooooooooooooooooooooooOOOO@@@@@@",
"@@@@++++++..ooooooooooooooooooooooooooooooooooooooXXXXXXXXXXooooooXXooooooooooooooooooooooooooooooooooooooooooooooooooOOOO++@@@@",
"@@@@++++++..ooooooooooooooooooooooooooooooooooooooXXXXXXXXXXooooooXXooooooooooooooooooooooooooooooooooooooooooooooooooOOOO++@@@@",
"@@@@@@++++  ooooooooooooooooooooooooooooooooooooooXXXXXXXXXXXXoooooooooooooooooooooooooooooooooooooooooooooooooooooo..++++++@@@@",
"@@@@@@++++  ooooooooooooooooooooooooooooooooooooooXXXXXXXXXXXXoooooooooooooooooooooooooooooooooooooooooooooooooooooo..++++++@@@@",
"@@@@@@++++  ooooooooooooooooooooooooooooooooooooooXXXXXXXXXXXXoooooooooooooooooooooooooooooooooooooooooooooooooooooo..++++++@@@@",
"@@@@@@++++  ooooooooooooooooooooooooooooooooooooooXXXXXXXXXXXXoooooooooooooooooooooooooooooooooooooooooooooooooooooo..++++++@@@@",
"@@@@@@####OOooooooooooooooooooooooooooooooooooooooXXXXXXXXXXXXooooooooooooooooooooooooooooooooooooooooooooooooooooooooOOOO++@@@@",
"@@@@@@####OOooooooooooooooooooooooooooooooooooooooXXXXXXXXXXXXooooooooooooooooooooooooooooooooooooooooooooooooooooooooOOOO++@@@@",
"@@@@@@####OOooooooooooooooooooooooooooooooooooooooXXXXXXXXXXXXooooooooooooooooooooooooooooooooooooooooooooooooooooooooOOOO++@@@@",
"@@@@@@####OOooooooooooooooooooooooooooooooooooooooXXXXXXXXXXXXooooooooooooooooooooooooooooooooooooooooooooooooooooooooOOOO++@@@@",
"@@@@##++++ooooooooooooooooooooooooooooooooooooooooooooXXXXXXXXooooXXXXXXoooooooooooooooooooooooooooooooooooooooooooooooooo++@@@@",
"@@@@##++++ooooooooooooooooooooooooooooooooooooooooooooXXXXXXXXooooXXXXXXoooooooooooooooooooooooooooooooooooooooooooooooooo++@@@@",
"@@@@$$++++..ooooooooooooooooooooooooooooooooooooooooooooooooooooooXXXXXXoooooooooooooooooooooooooooooooooooooooooooooooooo++++++",
"@@@@$$++++..ooooooooooooooooooooooooooooooooooooooooooooooooooooooXXXXXXoooooooooooooooooooooooooooooooooooooooooooooooooo++++++",
"@@@@$$++++..ooooooooooooooooooooooooooooooooooooooooooooooooooooooXXXXXXoooooooooooooooooooooooooooooooooooooooooooooooooo++++++",
"@@@@$$++++..ooooooooooooooooooooooooooooooooooooooooooooooooooooooXXXXXXoooooooooooooooooooooooooooooooooooooooooooooooooo++++++",
"@@@@##++++OOoooooooooooooooooooooooooooooooooooooooooooooooooooooooooooooooooooooooooooooooooooooooooooooooooooooooo......##++++",
"@@@@##++++OOoooooooooooooooooooooooooooooooooooooooooooooooooooooooooooooooooooooooooooooooooooooooooooooooooooooooo......##++++",
"@@@@++####OOoooooooooooooooooooooooooooooooooooooooooooooooooooooooooooooooooooooooooooooooooooooooooooooooooooooooo..OOOO++####",
"@@@@++####OOoooooooooooooooooooooooooooooooooooooooooooooooooooooooooooooooooooooooooooooooooooooooooooooooooooooooo..OOOO++####",
"@@@@++####OOoooooooooooooooooooooooooooooooooooooooooooooooooooooooooooooooooooooooooooooooooooooooooooooooooooooooo..OOOO++####",
"@@@@++####OOoooooooooooooooooooooooooooooooooooooooooooooooooooooooooooooooooooooooooooooooooooooooooooooooooooooooo..OOOO++####",
"@@@@++++++..ooooooooooooooooooooooooooooXXXXXXoooooooooooooooooooooooooooooooooooooooooooooooooooooooooooooooooooooooo++++++$$$$",
"@@@@++++++..ooooooooooooooooooooooooooooXXXXXXoooooooooooooooooooooooooooooooooooooooooooooooooooooooooooooooooooooooo++++++$$$$",
"@@@@++++++ooooooooooooooooooooooooooooooXXXXXXoooooooooooooooooooooooooooooooooooooooooooooooooooooooooooooooooooooooo++++++$$$$",
"@@@@++++++ooooooooooooooooooooooooooooooXXXXXXoooooooooooooooooooooooooooooooooooooooooooooooooooooooooooooooooooooooo++++++$$$$",
"@@@@++++++ooooooooooooooooooooooooooooooXXXXXXoooooooooooooooooooooooooooooooooooooooooooooooooooooooooooooooooooooooo++++++$$$$",
"@@@@++++++ooooooooooooooooooooooooooooooXXXXXXoooooooooooooooooooooooooooooooooooooooooooooooooooooooooooooooooooooooo++++++$$$$",
"@@@@++++++..ooooooooooooooooooooooooooooooooooooooXXXXooooooooooooooooooXXXXXXoooooooooooooooooooooooooooooooooooooo..OOOO++$$$$",
"@@@@++++++..ooooooooooooooooooooooooooooooooooooooXXXXooooooooooooooooooXXXXXXoooooooooooooooooooooooooooooooooooooo..OOOO++$$$$",
"@@@@++++++OOooooooooooooooooooooooooooooooooooooooooooooooooooooooXXooooXXXXXXooooooooooooooooooooooooooooooooooooooooOOOO++####",
"@@@@++++++OOooooooooooooooooooooooooooooooooooooooooooooooooooooooXXooooXXXXXXooooooooooooooooooooooooooooooooooooooooOOOO++####",
"@@@@++++++OOooooooooooooooooooooooooooooooooooooooooooooooooooooooXXooooXXXXXXooooooooooooooooooooooooooooooooooooooooOOOO++####",
"@@@@++++++OOooooooooooooooooooooooooooooooooooooooooooooooooooooooXXooooXXXXXXooooooooooooooooooooooooooooooooooooooooOOOO++####",
"@@@@++####OOoooooooooooooooooooooooooooooooooooooooooooooooooooooooooooooooooooooooooooooooooooooooooooooooooooooooo..OOOO##++++",
"@@@@++####OOoooooooooooooooooooooooooooooooooooooooooooooooooooooooooooooooooooooooooooooooooooooooooooooooooooooooo..OOOO##++++",
"@@@@++####OOoooooooooooooooooooooooooooooooooooooooooooooooooooooooooooooooooooooooooooooooooooooooooooooooooooooooo..OOOO##++++",
"@@@@++####OOoooooooooooooooooooooooooooooooooooooooooooooooooooooooooooooooooooooooooooooooooooooooooooooooooooooooo..OOOO##++++",
"@@@@##++++  ooooooooooooooooooooooooooooooooooooooooooooooooooooooooXXXXXXoooooooooooooooooooooooooooooooooooooooooo..OOOO++@@@@",
"@@@@##++++  ooooooooooooooooooooooooooooooooooooooooooooooooooooooooXXXXXXoooooooooooooooooooooooooooooooooooooooooo..OOOO++@@@@",
"@@@@$$++++..ooooooooooooooooooooooooooooooooooooooooooooooooooooooooXXXXXXoooooooooooooooooooooooooooooooooooooooooo..++++++@@@@",
"@@@@$$++++..ooooooooooooooooooooooooooooooooooooooooooooooooooooooooXXXXXXoooooooooooooooooooooooooooooooooooooooooo..++++++@@@@",
"@@@@$$++++..ooooooooooooooooooooooooooooooooooooooooooooooooooooooooXXXXXXoooooooooooooooooooooooooooooooooooooooooo..++++++@@@@",
"@@@@$$++++..ooooooooooooooooooooooooooooooooooooooooooooooooooooooooXXXXXXoooooooooooooooooooooooooooooooooooooooooo..++++++@@@@",
"@@@@$$++++..ooooooooooooooooooooooooooooooooooooooooooooooooooooooooooooooooooooooooooooooooooooooooooooooooooooooooooOOOO++@@@@",
"@@@@$$++++..ooooooooooooooooooooooooooooooooooooooooooooooooooooooooooooooooooooooooooooooooooooooooooooooooooooooooooOOOO++@@@@",
"@@@@$$++++OO....oooooooooooooooo......oooooooooooooooooooooooooooooooooooooooooooo......oooooooooooooooooooooooo......OOOO++@@@@",
"@@@@$$++++OO....oooooooooooooooo......oooooooooooooooooooooooooooooooooooooooooooo......oooooooooooooooooooooooo......OOOO++@@@@",
"@@@@$$++++OO....oooooooooooooooo......oooooooooooooooooooooooooooooooooooooooooooo......oooooooooooooooooooooooo......OOOO++@@@@",
"@@@@$$++++OO....oooooooooooooooo......oooooooooooooooooooooooooooooooooooooooooooo......oooooooooooooooooooooooo......OOOO++@@@@",
"@@@@##++++++    ............    oooooo........        ..    ..    ............    oooooo........        ..    ..      ++++++####",
"@@@@##++++++    ............    oooooo........        ..    ..    ............    oooooo........        ..    ..      ++++++####",
"@@@@@@####++....oooooooo    ....oooooo  oooo......    ......  ....oooooooo    ....oooooo  oooo......    ......  ....  ++++@@####",
"@@@@@@####++....oooooooo    ....oooooo  oooo......    ......  ....oooooooo    ....oooooo  oooo......    ......  ....  ++++@@####",
"@@@@@@####++....oooooooo    ....oooooo  oooo......    ......  ....oooooooo    ....oooooo  oooo......    ......  ....  ++++@@####",
"@@@@@@####++....oooooooo    ....oooooo  oooo......    ......  ....oooooooo    ....oooooo  oooo......    ......  ....  ++++@@####",
"@@@@@@@@@@++    ..oooooo....    ......      ..                    ..oooooo....    ......      ..          ......    OO++++@@$$$$",
"@@@@@@@@@@++    ..oooooo....    ......      ..                    ..oooooo....    ......      ..          ......    OO++++@@$$$$",
"@@@@@@@@@@++    ..oooooo....    ......      ..                    ..oooooo....    ......      ..          ......    OO++++@@$$$$",
"@@@@@@@@@@++    ..oooooo....    ......      ..                    ..oooooo....    ......      ..          ......    OO++++@@$$$$",
"@@@@@@@@@@++OOOO  ......    OOOO++++++OO          OOOO++++++++OOOO  ......    OOOO++++++OO          OOOO++OOOO      ++@@@@$$@@@@",
"@@@@@@@@@@++OOOO  ......    OOOO++++++OO          OOOO++++++++OOOO  ......    OOOO++++++OO          OOOO++OOOO      ++@@@@$$@@@@",
"@@@@@@@@@@@@++++##++++++++++++++##++++##++++++++++@@@@##@@@@@@++++##++++++++++++++##++++##++++++++++@@@@##@@@@++++++######@@@@@@",
"@@@@@@@@@@@@++++##++++++++++++++##++++##++++++++++@@@@##@@@@@@++++##++++++++++++++##++++##++++++++++@@@@##@@@@++++++######@@@@@@",
"@@@@@@@@@@@@++++##++++++++++++++##++++##++++++++++@@@@##@@@@@@++++##++++++++++++++##++++##++++++++++@@@@##@@@@++++++######@@@@@@",
"@@@@@@@@@@@@++++##++++++++++++++##++++##++++++++++@@@@##@@@@@@++++##++++++++++++++##++++##++++++++++@@@@##@@@@++++++######@@@@@@",
"@@@@@@@@@@@@@@@@@@####$$$$$$####@@@@@@@@$$$$$$$$$$####@@@@@@@@@@@@@@####$$$$$$####@@@@@@@@$$$$$$$$$$####@@@@@@@@@@@@@@@@@@@@@@@@",
"@@@@@@@@@@@@@@@@@@####$$$$$$####@@@@@@@@$$$$$$$$$$####@@@@@@@@@@@@@@####$$$$$$####@@@@@@@@$$$$$$$$$$####@@@@@@@@@@@@@@@@@@@@@@@@",
"@@@@@@@@@@@@@@@@@@@@@@@@@@@@@@@@@@@@@@@@@@@@@@@@@@@@@@@@@@@@@@@@@@@@@@@@@@@@@@@@@@@@@@@@@@@@@@@@@@@@@@@@@@@@@@@@@@@@@@@@@@@@@@@@",
"@@@@@@@@@@@@@@@@@@@@@@@@@@@@@@@@@@@@@@@@@@@@@@@@@@@@@@@@@@@@@@@@@@@@@@@@@@@@@@@@@@@@@@@@@@@@@@@@@@@@@@@@@@@@@@@@@@@@@@@@@@@@@@@@",
"@@@@@@@@@@@@@@@@@@@@@@@@@@@@@@@@@@@@@@@@@@@@@@@@@@@@@@@@@@@@@@@@@@@@@@@@@@@@@@@@@@@@@@@@@@@@@@@@@@@@@@@@@@@@@@@@@@@@@@@@@@@@@@@@",
"@@@@@@@@@@@@@@@@@@@@@@@@@@@@@@@@@@@@@@@@@@@@@@@@@@@@@@@@@@@@@@@@@@@@@@@@@@@@@@@@@@@@@@@@@@@@@@@@@@@@@@@@@@@@@@@@@@@@@@@@@@@@@@@@",
"@@@@@@@@@@@@@@@@@@@@@@@@@@@@@@@@@@@@@@@@@@@@@@@@@@@@@@@@@@@@@@@@@@@@@@@@@@@@@@@@@@@@@@@@@@@@@@@@@@@@@@@@@@@@@@@@@@@@@@@@@@@@@@@@",
"@@@@@@@@@@@@@@@@@@@@@@@@@@@@@@@@@@@@@@@@@@@@@@@@@@@@@@@@@@@@@@@@@@@@@@@@@@@@@@@@@@@@@@@@@@@@@@@@@@@@@@@@@@@@@@@@@@@@@@@@@@@@@@@@",
"@@@@@@@@@@@@@@@@@@@@@@@@@@@@@@@@@@@@@@@@@@@@@@@@@@@@@@@@@@@@@@@@@@@@@@@@@@@@@@@@@@@@@@@@@@@@@@@@@@@@@@@@@@@@@@@@@@@@@@@@@@@@@@@@",
"@@@@@@@@@@@@@@@@@@@@@@@@@@@@@@@@@@@@@@@@@@@@@@@@@@@@@@@@@@@@@@@@@@@@@@@@@@@@@@@@@@@@@@@@@@@@@@@@@@@@@@@@@@@@@@@@@@@@@@@@@@@@@@@@",
"@@@@@@@@@@@@@@@@@@@@@@@@@@@@@@@@@@@@@@@@@@@@@@@@@@@@@@@@@@@@@@@@@@@@@@@@@@@@@@@@@@@@@@@@@@@@@@@@@@@@@@@@@@@@@@@@@@@@@@@@@@@@@@@@",
"@@@@@@@@@@@@@@@@@@@@@@@@@@@@@@@@@@@@@@@@@@@@@@@@@@@@@@@@@@@@@@@@@@@@@@@@@@@@@@@@@@@@@@@@@@@@@@@@@@@@@@@@@@@@@@@@@@@@@@@@@@@@@@@@",
"@@@@@@@@@@@@@@@@@@@@@@@@@@@@@@@@@@@@@@@@@@@@@@@@@@@@@@@@@@@@@@@@@@@@@@@@@@@@@@@@@@@@@@@@@@@@@@@@@@@@@@@@@@@@@@@@@@@@@@@@@@@@@@@@",
"@@@@@@@@@@@@@@@@@@@@@@@@@@@@@@@@@@@@@@@@@@@@@@@@@@@@@@@@@@@@@@@@@@@@@@@@@@@@@@@@@@@@@@@@@@@@@@@@@@@@@@@@@@@@@@@@@@@@@@@@@@@@@@@@",
"@@@@@@@@@@@@@@@@@@@@@@@@@@@@@@@@@@@@@@@@@@@@@@@@@@@@@@@@@@@@@@@@@@@@@@@@@@@@@@@@@@@@@@@@@@@@@@@@@@@@@@@@@@@@@@@@@@@@@@@@@@@@@@@@",
"@@@@@@@@@@@@@@@@@@@@@@@@@@@@@@@@@@@@@@@@@@@@@@@@@@@@@@@@@@@@@@@@@@@@@@@@@@@@@@@@@@@@@@@@@@@@@@@@@@@@@@@@@@@@@@@@@@@@@@@@@@@@@@@@",
"@@@@@@@@@@@@@@@@@@@@@@@@@@@@@@@@@@@@@@@@@@@@@@@@@@@@@@@@@@@@@@@@@@@@@@@@@@@@@@@@@@@@@@@@@@@@@@@@@@@@@@@@@@@@@@@@@@@@@@@@@@@@@@@@",
"@@@@@@@@@@@@@@@@@@@@@@@@@@@@@@@@@@@@@@@@@@@@@@@@@@@@@@@@@@@@@@@@@@@@@@@@@@@@@@@@@@@@@@@@@@@@@@@@@@@@@@@@@@@@@@@@@@@@@@@@@@@@@@@@"
};
