/* XPM */
static char * waterwall_green128_xpm[] = {
"128 128 12 1",
" 	c None",
".	c #378AD1",
"+	c #83D135",
"@	c #3DB945",
"#	c #44ADE0",
"$	c #386AC3",
"%	c #D4C044",
"&	c #C0953F",
"*	c #55D1EC",
"=	c #B57A40",
"-	c #747183",
";	c #2D9551",
"................................................................................................................................",
"................................................................................................................................",
"................................................................................................................................",
"................................................................................................................................",
"................................................................................................................................",
"................................................................................................................................",
"................................................................................................................................",
"................................................................................................................................",
"................................................................................................................................",
"................................................................................................................................",
"................................................................................................................................",
"................................................................................................................................",
"................................................................................................................................",
"................................................................................................................................",
"................................................................................................................................",
"................................................................................................................................",
"................................................................................................................................",
"................................................................................................................................",
"................................................................................................................................",
"................................................................................................................................",
"................................................................................................................................",
"...................................................+++++...................................+++++................................",
"...................................................+++++...................................+++++................................",
"...................................................+++++...................................+++++................................",
"........................@@@@@......@@++++++..+++@@@+++++@@@+++++@@@@@......@@+++++++++++@@@+++++@@@+++++........................",
"........................@@@@@......@@++++++..+++@@@+++++@@@+++++@@@@@......@@+++++++++++@@@+++++@@@+++++........................",
"........................@@@@@......@@++++++..+++@@@+++++@@@+++++@@@@@......@@+++++++++++@@@+++++@@@+++++........................",
"...................##$$$+++++@@@@@@++++++++@@+++@@@++%%%%%%+++++&&&++@@@@@@+++++++++++++@@@++%%%%%%++++++++.....................",
"...................##$$$+++++@@@@@@++++++++@@+++@@@++%%%%%%+++++&&&++@@@@@@+++++++++++++@@@++%%%%%%++++++++.....................",
"................***$$&&&+++++++++++++&&&+++++++++++++&&&%%%++++++++++++++++++&&&+++++++++++++&&&%%%+++++@@@##...................",
"................***$$&&&+++++++++++++&&&+++++++++++++&&&%%%++++++++++++++++++&&&+++++++++++++&&&%%%+++++@@@##...................",
"................***$$&&&+++++++++++++&&&+++++++++++++&&&%%%++++++++++++++++++&&&+++++++++++++&&&%%%+++++@@@##...................",
".............$$$###++++++++++++++++++++++++++++++++++++++++++++++++++++++++++++++++++++++++++++++++++@@@&&&$$***................",
".............$$$###++++++++++++++++++++++++++++++++++++++++++++++++++++++++++++++++++++++++++++++++++@@@&&&$$***................",
".............$$$###++++++++++++++++++++++++++++++++++++++++++++++++++++++++++++++++++++++++++++++++++@@@&&&$$***................",
".............$$$$$$@@++++++++++++++++++++++++++++++++++++++++++++++++++++++++++++++++++++++++++++++++++++++$$###................",
".............$$$$$$@@++++++++++++++++++++++++++++++++++++++++++++++++++++++++++++++++++++++++++++++++++++++$$###................",
".............$$$$$$&&+++++++++++++++++++++++++++++++++++++++++++++++++++++++++++++++++++++++++++++++++++@@@$$$$$................",
".............$$$$$$&&+++++++++++++++++++++++++++++++++++++++++++++++++++++++++++++++++++++++++++++++++++@@@$$$$$................",
".............$$$$$$&&+++++++++++++++++++++++++++++++++++++++++++++++++++++++++++++++++++++++++++++++++++@@@$$$$$................",
"................$$$==++++++++++++++++++++++++++++++++++++++++++++++++++++++++++++++++++++++++++++++++@@@&&&$$...................",
"................$$$==++++++++++++++++++++++++++++++++++++++++++++++++++++++++++++++++++++++++++++++++@@@&&&$$...................",
"................$$$==++++++++++++++++++++++++++++++++++++++++++++++++++++++++++++++++++++++++++++++++@@@&&&$$...................",
"................$$$+++++++++++++++++++++++++++++++++++++++++++++++++++++++++++++++++++++++++++++++++++++&&&$$...................",
"................$$$+++++++++++++++++++++++++++++++++++++++++++++++++++++++++++++++++++++++++++++++++++++&&&$$...................",
".............$$$$$$==@@@+++++++++++++++++++++++++++++++++++++++++++++++++++++++++++++++++++++++++++++++++++++...................",
".............$$$$$$==@@@+++++++++++++++++++++++++++++++++++++++++++++++++++++++++++++++++++++++++++++++++++++...................",
".............$$$$$$==@@@+++++++++++++++++++++++++++++++++++++++++++++++++++++++++++++++++++++++++++++++++++++...................",
".............$$$$$$&&%%%%%%++++++++++++++++++++++++++++++++++++++++++++++++++++++++++++++++++++++++++++++++++$$$................",
".............$$$$$$&&%%%%%%++++++++++++++++++++++++++++++++++++++++++++++++++++++++++++++++++++++++++++++++++$$$................",
".............$$$$$$&&%%%%%%++++++++++++++++++++++++++++++++++++++++++++++++++++++++++++++++++++++++++++++++++$$$................",
"................$$$==%%%&&&+++++++++++++++++++++++++++++++++++++++++++++++++++++++++++++++++++++++++++++@@@==$$$................",
"................$$$==%%%&&&+++++++++++++++++++++++++++++++++++++++++++++++++++++++++++++++++++++++++++++@@@==$$$................",
"................###--===+++++++++++++++++++++++++++++++++++++++++++++++++++++++++++++++++++++++++++++++++++--$$$................",
"................###--===+++++++++++++++++++++++++++++++++++++++++++++++++++++++++++++++++++++++++++++++++++--$$$................",
"................###--===+++++++++++++++++++++++++++++++++++++++++++++++++++++++++++++++++++++++++++++++++++--$$$................",
".............###$$$++++++++++++++++++++++++++++++++++++++++++++++++++++++++++++++++++++++++++++++++++++++++++$$$................",
".............###$$$++++++++++++++++++++++++++++++++++++++++++++++++++++++++++++++++++++++++++++++++++++++++++$$$................",
".............###$$$++++++++++++++++++++++++++++++++++++++++++++++++++++++++++++++++++++++++++++++++++++++++++$$$................",
".............***$$$@@++++++++++++++++++++++++++++++++++++++++++++++++++++++++++++++++++++++++++++++++++++++==$$$$$$.............",
".............***$$$@@++++++++++++++++++++++++++++++++++++++++++++++++++++++++++++++++++++++++++++++++++++++==$$$$$$.............",
".............###$$$--===++++++++++++++++++++++++++++++++++++++++++++++++++++++++++++++++++++++++++++++++@@@&&###$$$.............",
".............###$$$--===++++++++++++++++++++++++++++++++++++++++++++++++++++++++++++++++++++++++++++++++@@@&&###$$$.............",
".............###$$$--===++++++++++++++++++++++++++++++++++++++++++++++++++++++++++++++++++++++++++++++++@@@&&###$$$.............",
".............$$$###==+++++++++++++++++++++++++++++++++++++++++++++++++++++++++++++++++++++++++++++++++++&&&--$$$###.............",
".............$$$###==+++++++++++++++++++++++++++++++++++++++++++++++++++++++++++++++++++++++++++++++++++&&&--$$$###.............",
".............$$$###==+++++++++++++++++++++++++++++++++++++++++++++++++++++++++++++++++++++++++++++++++++&&&--$$$###.............",
".............$$$$$$&&+++%%%++++++++++++++++++++++++++++++++++++++++++++++++++++++++++++++++++++++++++++++++++$$$***.............",
".............$$$$$$&&+++%%%++++++++++++++++++++++++++++++++++++++++++++++++++++++++++++++++++++++++++++++++++$$$***.............",
".............$$$$$$++++++++++++++++++++++++++++++++++++++++++++++++++++++++++++++++++++++++++++++++++%%%%%%++$$$***.............",
".............$$$$$$++++++++++++++++++++++++++++++++++++++++++++++++++++++++++++++++++++++++++++++++++%%%%%%++$$$***.............",
".............$$$$$$++++++++++++++++++++++++++++++++++++++++++++++++++++++++++++++++++++++++++++++++++%%%%%%++$$$***.............",
".............$$$$$$@@++++++++++++++++++++++++++++++++++++++++++++++++++++++++++++++++++++++++++++++++&&&@@@==$$$***.............",
".............$$$$$$@@++++++++++++++++++++++++++++++++++++++++++++++++++++++++++++++++++++++++++++++++&&&@@@==$$$***.............",
".............$$$$$$@@++++++++++++++++++++++++++++++++++++++++++++++++++++++++++++++++++++++++++++++++&&&@@@==$$$***.............",
".............$$$$$$--===@@@++++++++++++++++++++++++++++++++++++++++++++++++++++++++++++++++++++++++++++++++--$$$###.............",
".............$$$$$$--===@@@++++++++++++++++++++++++++++++++++++++++++++++++++++++++++++++++++++++++++++++++--$$$###.............",
".............$$$###--+++++++++++++++++++++++++++++++++++++++++++++++++++++++++++++++++++++++++++++++++++@@@--###$$$.............",
".............$$$###--+++++++++++++++++++++++++++++++++++++++++++++++++++++++++++++++++++++++++++++++++++@@@--###$$$.............",
".............$$$###--+++++++++++++++++++++++++++++++++++++++++++++++++++++++++++++++++++++++++++++++++++@@@--###$$$.............",
".............###$$$==@@@++++++++++++++++++++++++++++++++++++++++++++++++++++++++++++++++++++++++++++++++&&&==$$$................",
".............###$$$==@@@++++++++++++++++++++++++++++++++++++++++++++++++++++++++++++++++++++++++++++++++&&&==$$$................",
".............###$$$==@@@++++++++++++++++++++++++++++++++++++++++++++++++++++++++++++++++++++++++++++++++&&&==$$$................",
".............***$$$--===++++++++++++++++++++++++++++++++++++++++++++++++++++++++++++++++++++++++++++++++&&&$$$$$................",
".............***$$$--===++++++++++++++++++++++++++++++++++++++++++++++++++++++++++++++++++++++++++++++++&&&$$$$$................",
".............***$$$&&+++++++++++++++++++@@@++%%%%%%+++++++++++++++++++++++++++++@@@++%%%%%%++++++++++++++++==$$$................",
".............***$$$&&+++++++++++++++++++@@@++%%%%%%+++++++++++++++++++++++++++++@@@++%%%%%%++++++++++++++++==$$$................",
".............***$$$&&+++++++++++++++++++@@@++%%%%%%+++++++++++++++++++++++++++++@@@++%%%%%%++++++++++++++++==$$$................",
".............***$$$--@@@+++++++++++++@@@&&&++%%%&&&+++++@@@++&&&+++++++++++++@@@&&&++%%%&&&+++++@@@++&&&@@@--$$$................",
".............***$$$--@@@+++++++++++++@@@&&&++%%%&&&+++++@@@++&&&+++++++++++++@@@&&&++%%%&&&+++++@@@++&&&@@@--$$$................",
".............***$$$--@@@+++++++++++++@@@&&&++%%%&&&+++++@@@++&&&+++++++++++++@@@&&&++%%%&&&+++++@@@++&&&@@@--$$$................",
".............###$$$$$;;;@@@&&&&&@@@;;%%%%%%@@@@@;;;;;@@@===@@;;;@@@&&&&&@@@;;%%%%%%&&@@@;;;;;@@@===@@;;;===$$$$$###.............",
".............###$$$$$;;;@@@&&&&&@@@;;%%%%%%@@@@@;;;;;@@@===@@;;;@@@&&&&&@@@;;%%%%%%&&@@@;;;;;@@@===@@;;;===$$$$$###.............",
"................###$$@@@%%%%%%%%===@@%%%%%%==&&&&&&==&&&&&&==@@@%%%%%%%%===@@%%%%%%%%&&&&&&==&&&&&&==@@@===$$...###.............",
"................###$$@@@%%%%%%%%===@@%%%%%%==&&&&&&==&&&&&&==@@@%%%%%%%%===@@%%%%%%%%&&&&&&==&&&&&&==@@@===$$...###.............",
"................###$$@@@%%%%%%%%===@@%%%%%%==&&&&&&==&&&&&&==@@@%%%%%%%%===@@%%%%%%%%&&&&&&==&&&&&&==@@@===$$...###.............",
"...................$$===&&&%%%%%&&&==&&&&&&==&&&================&&&%%%%%&&&==&&&&&&==&&&========&&&&&===---$$...***.............",
"...................$$===&&&%%%%%&&&==&&&&&&==&&&================&&&%%%%%&&&==&&&&&&==&&&========&&&&&===---$$...***.............",
"...................$$===&&&%%%%%&&&==&&&&&&==&&&================&&&%%%%%&&&==&&&&&&==&&&========&&&&&===---$$...***.............",
"...................$$---===&&&&&===--$$$$$$--======--$$$$$$$$---===&&&&&===--$$$$$$========--$$$---=====$$$..***................",
"...................$$---===&&&&&===--$$$$$$--======--$$$$$$$$---===&&&&&===--$$$$$$========--$$$---=====$$$..***................",
".....................$$$###$$$$$$$$$$###$$$##$$$$$$..###.....$$$###$$$$$$$$$$###$$$$$$$$$$$..###...$$$$$#####...................",
".....................$$$###$$$$$$$$$$###$$$##$$$$$$..###.....$$$###$$$$$$$$$$###$$$$$$$$$$$..###...$$$$$#####...................",
".....................$$$###$$$$$$$$$$###$$$##$$$$$$..###.....$$$###$$$$$$$$$$###$$$$$$$$$$$..###...$$$$$#####...................",
"...........................##******##........******##..............##******##......********##...................................",
"...........................##******##........******##..............##******##......********##...................................",
"...........................##******##........******##..............##******##......********##...................................",
"................................................................................................................................",
"................................................................................................................................",
"................................................................................................................................",
"................................................................................................................................",
"................................................................................................................................",
"................................................................................................................................",
"................................................................................................................................",
"................................................................................................................................",
"................................................................................................................................",
"................................................................................................................................",
"................................................................................................................................",
"................................................................................................................................",
"................................................................................................................................",
"................................................................................................................................",
"................................................................................................................................",
"................................................................................................................................",
"................................................................................................................................",
"................................................................................................................................",
"................................................................................................................................",
"................................................................................................................................",
"................................................................................................................................"};
